<?xml version="1.0" encoding="utf-8"?>
<!-- Generator: Adobe Illustrator 19.0.0, SVG Export Plug-In . SVG Version: 6.00 Build 0)  -->
<svg version="1.1" id="Warstwa_1" xmlns="http://www.w3.org/2000/svg" xmlns:xlink="http://www.w3.org/1999/xlink" x="0px" y="0px"
	 viewBox="0 0 595.3 841.9" style="enable-background:new 0 0 595.3 841.9;" xml:space="preserve">
<style type="text/css">
	.st0{enable-background:new    ;}
	.st1{fill:#D4D4D4;}
	.st2{fill:#E0E1E0;}
	.st3{fill:#E6E6E5;}
	.st4{fill:#EDEDED;}
	.st5{fill:#F4F4F4;}
	.st6{clip-path:url(#XMLID_738_);}
	.st7{fill:url(#XMLID_739_);}
	.st8{fill:#CACACA;}
	.st9{fill:#8D201F;}
	.st10{fill:#9A3331;}
	.st11{fill:#B84646;}
	.st12{fill:#7F1717;}
	.st13{fill:url(#XMLID_740_);}
	.st14{fill:url(#XMLID_741_);}
	.st15{fill:url(#XMLID_742_);}
	.st16{fill:url(#XMLID_743_);}
	.st17{fill:#20748D;}
	.st18{fill:#327C9A;}
	.st19{fill:#459CB7;}
	.st20{fill:#18677F;}
	.st21{fill:url(#XMLID_744_);}
	.st22{fill:url(#XMLID_745_);}
	.st23{fill:url(#XMLID_746_);}
	.st24{fill:url(#XMLID_747_);}
	.st25{fill:url(#XMLID_748_);}
	.st26{fill:url(#XMLID_749_);}
	.st27{fill:url(#XMLID_750_);}
	.st28{fill:url(#XMLID_751_);}
	.st29{fill:url(#XMLID_752_);}
	.st30{fill:url(#XMLID_753_);}
	.st31{fill:url(#XMLID_772_);}
	.st32{fill:url(#XMLID_773_);}
	.st33{fill:url(#XMLID_774_);}
	.st34{fill:url(#XMLID_775_);}
	.st35{fill:url(#XMLID_776_);}
	.st36{fill:url(#XMLID_777_);}
	.st37{fill:url(#XMLID_778_);}
	.st38{fill:url(#XMLID_779_);}
	.st39{fill:url(#XMLID_780_);}
	.st40{fill:url(#XMLID_781_);}
	.st41{fill:#49494E;}
	.st42{fill:#79C145;}
	.st43{opacity:0.2;fill:#B5D66C;}
	.st44{fill:url(#XMLID_782_);}
	.st45{fill:url(#XMLID_783_);}
	.st46{fill:url(#XMLID_784_);}
	.st47{fill:url(#XMLID_785_);}
	.st48{fill:url(#XMLID_786_);}
	.st49{fill:url(#XMLID_787_);}
	.st50{fill:url(#XMLID_788_);}
	.st51{fill:url(#XMLID_789_);}
	.st52{clip-path:url(#XMLID_738_);fill:#49494E;}
	.st53{opacity:0.7;fill:#3F8D88;}
	.st54{opacity:0.7;fill:#51B1AF;}
	.st55{opacity:0.7;fill:#98D5C6;}
	.st56{opacity:0.7;fill:url(#XMLID_790_);}
</style>
<g id="_x31_6">
	<g id="XMLID_453_">
		<g id="XMLID_454_" class="st0">
			<g id="XMLID_467_">
				<polygon id="XMLID_421_" class="st1" points="421.2,362.2 427.6,365.7 82.3,560.3 93.2,547 				"/>
			</g>
			<g id="XMLID_465_">
				<polygon id="XMLID_422_" class="st2" points="421.3,154.6 427.7,138.7 427.6,365.7 421.2,362.2 				"/>
			</g>
			<g id="XMLID_463_">
				<polygon id="XMLID_423_" class="st3" points="421.3,154.6 421.2,362.2 93.2,547 93.3,339.4 				"/>
			</g>
			<g id="XMLID_461_">
				<polygon id="XMLID_424_" class="st4" points="93.3,339.4 82.3,333.3 427.7,138.7 421.3,154.6 				"/>
			</g>
			<g id="XMLID_459_">
				<polygon id="XMLID_425_" class="st1" points="82.3,560.3 72.5,554.7 72.5,327.7 82.3,333.3 				"/>
			</g>
			<g id="XMLID_457_">
				<polygon id="XMLID_426_" class="st5" points="82.3,333.3 72.5,327.7 417.9,133.2 427.7,138.7 				"/>
			</g>
			<g id="XMLID_455_">
				<polygon id="XMLID_427_" class="st2" points="93.2,547 82.3,560.3 82.3,333.3 93.3,339.4 				"/>
			</g>
		</g>
	</g>
	<polygon id="XMLID_428_" class="st1" points="409.6,193.7 107,364.2 107,525.3 409.6,354.9 	"/>
	<polygon id="XMLID_429_" class="st4" points="394.3,202.3 394.3,346.2 107,508.1 107,525.3 409.6,354.9 409.6,193.7 	"/>
	<polygon id="XMLID_430_" class="st2" points="394.3,202.3 394.3,346.2 409.6,354.9 409.6,193.7 	"/>
	<g id="XMLID_431_">
		<defs>
			<polygon id="XMLID_730_" points="409.6,193.7 107,364.2 107,525.3 409.6,354.9 			"/>
		</defs>
		<clipPath id="XMLID_738_">
			<use xlink:href="#XMLID_730_"  style="overflow:visible;"/>
		</clipPath>
		<g id="XMLID_432_" class="st6">
			<g id="XMLID_433_">
				<g id="XMLID_446_" class="st0">
					<linearGradient id="XMLID_739_" gradientUnits="userSpaceOnUse" x1="382.202" y1="305.4624" x2="396.0274" y2="329.4089">
						<stop  offset="0" style="stop-color:#F4F4F4"/>
						<stop  offset="1" style="stop-color:#DCDBDB"/>
					</linearGradient>
					<path id="XMLID_434_" class="st7" d="M386.1,305.8l-2.2-1.3l-2.8,1.6l2.2,1.3c6,3.4,10.8,11.5,10.8,18.2c0,3.3-1.2,5.7-3.2,6.8
						l2.8-1.6c1.9-1.1,3.1-3.4,3.2-6.8C396.9,317.3,392.1,309.2,386.1,305.8z"/>
					<g id="XMLID_447_">
						<path id="XMLID_435_" class="st8" d="M383.3,307.4c6,3.4,10.8,11.5,10.8,18.2c0,6.7-4.9,9.4-10.8,6l-2.2-1.3l0.1-24.2
							L383.3,307.4z"/>
					</g>
				</g>
				<g id="XMLID_436_" class="st0">
					<path id="XMLID_437_" class="st9" d="M382.8,308.5l-2.1-1.2l-10.6,6l2.1,1.2c1,0.6,2,1.3,3,2.2l10.6-6
						C384.9,309.8,383.9,309.1,382.8,308.5z"/>
					<g id="XMLID_443_">
						<path id="XMLID_438_" class="st10" d="M390.1,332.1l-10.6,6c1.8-1,3-3.2,3-6.4c0-3.6-1.5-7.6-3.8-11l10.6-6
							c2.3,3.4,3.8,7.4,3.8,11C393,328.9,391.9,331.1,390.1,332.1z"/>
					</g>
					<g id="XMLID_441_">
						<polygon id="XMLID_439_" class="st9" points="385.3,308.6 395.9,302.6 389.3,314.7 378.7,320.7 						"/>
					</g>
					<g id="XMLID_440_">
						<polygon id="XMLID_442_" class="st11" points="381.8,304.8 392.3,298.8 395.9,302.6 385.3,308.6 						"/>
					</g>
					<g id="XMLID_444_">
						<path id="XMLID_445_" class="st12" d="M381.8,304.8l3.5,3.8l-6.6,12c2.3,3.4,3.8,7.4,3.8,11c0,6.3-4.6,8.9-10.2,5.7l-2.1-1.2
							l0.1-22.9l2.1,1.2c1,0.6,2,1.3,3,2.2L381.8,304.8z"/>
					</g>
				</g>
				<g id="XMLID_448_" class="st0">
					<linearGradient id="XMLID_740_" gradientUnits="userSpaceOnUse" x1="368.7194" y1="313.0577" x2="382.5448" y2="337.0041">
						<stop  offset="0" style="stop-color:#F4F4F4"/>
						<stop  offset="1" style="stop-color:#DCDBDB"/>
					</linearGradient>
					<path id="XMLID_449_" class="st13" d="M372.6,313.4l-2.2-1.3l-2.8,1.6l2.2,1.3c6,3.4,10.8,11.5,10.8,18.2
						c0,3.3-1.2,5.7-3.2,6.8l2.8-1.6c1.9-1.1,3.1-3.4,3.2-6.8C383.4,324.9,378.6,316.7,372.6,313.4z"/>
					<g id="XMLID_450_">
						<path id="XMLID_451_" class="st8" d="M369.8,315c6,3.4,10.8,11.5,10.8,18.2c0,6.7-4.9,9.4-10.8,6l-2.2-1.3l0.1-24.2L369.8,315
							z"/>
					</g>
				</g>
			</g>
			<g id="XMLID_452_">
				<g id="XMLID_456_" class="st0">
					<linearGradient id="XMLID_741_" gradientUnits="userSpaceOnUse" x1="361.5216" y1="317.0417" x2="375.4091" y2="341.0954">
						<stop  offset="0" style="stop-color:#F4F4F4"/>
						<stop  offset="1" style="stop-color:#DCDBDB"/>
					</linearGradient>
					<path id="XMLID_458_" class="st14" d="M370.5,314.5l-2.2-1.3l-13,7.3l2.2,1.3c6,3.4,10.8,11.5,10.8,18.2c0,3.3-1.2,5.7-3.2,6.8
						l13-7.3c1.9-1.1,3.1-3.4,3.2-6.8C381.3,326,376.5,317.9,370.5,314.5z"/>
					<g id="XMLID_460_">
						<path id="XMLID_462_" class="st8" d="M357.5,321.9c6,3.4,10.8,11.5,10.8,18.2c0,6.7-4.9,9.4-10.8,6l-2.2-1.3l0.1-24.2
							L357.5,321.9z"/>
					</g>
				</g>
				<g id="XMLID_464_" class="st0">
					<path id="XMLID_466_" class="st9" d="M357.1,323l-2.1-1.2l-10.6,6l2.1,1.2c1,0.6,2,1.3,3,2.2l10.6-6
						C359.1,324.4,358.1,323.6,357.1,323z"/>
					<g id="XMLID_468_">
						<path id="XMLID_469_" class="st10" d="M364.3,346.6l-10.6,6c1.8-1,3-3.2,3-6.4c0-3.6-1.5-7.6-3.8-11l10.6-6
							c2.3,3.4,3.8,7.4,3.8,11C367.3,343.4,366.1,345.6,364.3,346.6z"/>
					</g>
					<g id="XMLID_470_">
						<polygon id="XMLID_471_" class="st9" points="359.5,323.1 370.1,317.1 363.5,329.2 352.9,335.2 						"/>
					</g>
					<g id="XMLID_472_">
						<polygon id="XMLID_473_" class="st11" points="356,319.3 366.6,313.3 370.1,317.1 359.5,323.1 						"/>
					</g>
					<g id="XMLID_474_">
						<path id="XMLID_475_" class="st12" d="M356,319.3l3.5,3.8l-6.6,12c2.3,3.4,3.8,7.4,3.8,11c0,6.3-4.6,8.9-10.2,5.7l-2.1-1.2
							l0.1-22.9l2.1,1.2c1,0.6,2,1.3,3,2.2L356,319.3z"/>
					</g>
				</g>
				<g id="XMLID_476_" class="st0">
					<linearGradient id="XMLID_742_" gradientUnits="userSpaceOnUse" x1="342.9664" y1="327.566" x2="356.7917" y2="351.5122">
						<stop  offset="0" style="stop-color:#F4F4F4"/>
						<stop  offset="1" style="stop-color:#DCDBDB"/>
					</linearGradient>
					<path id="XMLID_477_" class="st15" d="M346.9,327.9l-2.2-1.3l-2.8,1.6l2.2,1.3c6,3.4,10.8,11.5,10.8,18.2
						c0,3.3-1.2,5.7-3.2,6.8l2.8-1.6c1.9-1.1,3.1-3.4,3.2-6.8C357.6,339.4,352.8,331.3,346.9,327.9z"/>
					<g id="XMLID_478_">
						<path id="XMLID_479_" class="st8" d="M344.1,329.5c6,3.4,10.8,11.5,10.8,18.2c0,6.7-4.9,9.4-10.8,6l-2.2-1.3l0.1-24.2
							L344.1,329.5z"/>
					</g>
				</g>
			</g>
			<g id="XMLID_480_">
				<g id="XMLID_481_" class="st0">
					<linearGradient id="XMLID_743_" gradientUnits="userSpaceOnUse" x1="335.3386" y1="331.7925" x2="349.2258" y2="355.8458">
						<stop  offset="0" style="stop-color:#F4F4F4"/>
						<stop  offset="1" style="stop-color:#DCDBDB"/>
					</linearGradient>
					<path id="XMLID_482_" class="st16" d="M344.4,329.3l-2.2-1.3l-13,7.3l2.2,1.3c6,3.4,10.8,11.5,10.8,18.2c0,3.3-1.2,5.7-3.2,6.8
						l13-7.3c1.9-1.1,3.1-3.4,3.2-6.8C355.2,340.8,350.3,332.7,344.4,329.3z"/>
					<g id="XMLID_483_">
						<path id="XMLID_484_" class="st8" d="M331.4,336.6c6,3.4,10.8,11.5,10.8,18.2c0,6.7-4.9,9.4-10.8,6l-2.2-1.3l0.1-24.2
							L331.4,336.6z"/>
					</g>
				</g>
				<g id="XMLID_485_" class="st0">
					<path id="XMLID_486_" class="st17" d="M330.9,337.8l-2.1-1.2l-10.6,6l2.1,1.2c1,0.6,2,1.3,3,2.2l10.6-6
						C333,339.1,331.9,338.4,330.9,337.8z"/>
					<g id="XMLID_487_">
						<path id="XMLID_488_" class="st18" d="M338.1,361.4l-10.6,6c1.8-1,3-3.2,3-6.4c0-3.6-1.5-7.6-3.8-11l10.6-6
							c2.3,3.4,3.8,7.4,3.8,11C341.1,358.1,339.9,360.3,338.1,361.4z"/>
					</g>
					<g id="XMLID_489_">
						<polygon id="XMLID_490_" class="st17" points="333.3,337.9 343.9,331.9 337.3,343.9 326.7,349.9 						"/>
					</g>
					<g id="XMLID_491_">
						<polygon id="XMLID_492_" class="st19" points="329.8,334.1 340.4,328.1 343.9,331.9 333.3,337.9 						"/>
					</g>
					<g id="XMLID_493_">
						<path id="XMLID_494_" class="st20" d="M329.8,334.1l3.5,3.8l-6.6,12c2.3,3.4,3.8,7.4,3.8,11c0,6.3-4.6,8.9-10.2,5.7l-2.1-1.2
							l0.1-22.9l2.1,1.2c1,0.6,2,1.3,3,2.2L329.8,334.1z"/>
					</g>
				</g>
				<g id="XMLID_495_" class="st0">
					<linearGradient id="XMLID_744_" gradientUnits="userSpaceOnUse" x1="316.7836" y1="342.3163" x2="330.6091" y2="366.2627">
						<stop  offset="0" style="stop-color:#F4F4F4"/>
						<stop  offset="1" style="stop-color:#DCDBDB"/>
					</linearGradient>
					<path id="XMLID_496_" class="st21" d="M320.7,342.6l-2.2-1.3l-2.8,1.6l2.2,1.3c6,3.4,10.8,11.5,10.8,18.2
						c0,3.3-1.2,5.7-3.2,6.8l2.8-1.6c1.9-1.1,3.1-3.4,3.2-6.8C331.5,354.1,326.6,346,320.7,342.6z"/>
					<g id="XMLID_497_">
						<path id="XMLID_498_" class="st8" d="M317.9,344.2c6,3.4,10.8,11.5,10.8,18.2c0,6.7-4.9,9.4-10.8,6l-2.2-1.3l0.1-24.2
							L317.9,344.2z"/>
					</g>
				</g>
			</g>
			<g id="XMLID_499_">
				<g id="XMLID_500_" class="st0">
					<linearGradient id="XMLID_745_" gradientUnits="userSpaceOnUse" x1="309.1555" y1="346.5424" x2="323.0429" y2="370.5962">
						<stop  offset="0" style="stop-color:#F4F4F4"/>
						<stop  offset="1" style="stop-color:#DCDBDB"/>
					</linearGradient>
					<path id="XMLID_501_" class="st22" d="M318.2,344l-2.2-1.3l-13,7.3l2.2,1.3c6,3.4,10.8,11.5,10.8,18.2c0,3.3-1.2,5.7-3.2,6.8
						l13-7.3c1.9-1.1,3.1-3.4,3.2-6.8C329,355.5,324.2,347.4,318.2,344z"/>
					<g id="XMLID_502_">
						<path id="XMLID_503_" class="st8" d="M305.2,351.4c6,3.4,10.8,11.5,10.8,18.2c0,6.7-4.9,9.4-10.8,6l-2.2-1.3l0.1-24.2
							L305.2,351.4z"/>
					</g>
				</g>
				<g id="XMLID_504_" class="st0">
					<path id="XMLID_505_" class="st17" d="M304.7,352.5l-2.1-1.2l-10.6,6l2.1,1.2c1,0.6,2,1.3,3,2.2l10.6-6
						C306.8,353.9,305.8,353.1,304.7,352.5z"/>
					<g id="XMLID_506_">
						<path id="XMLID_507_" class="st18" d="M311.9,376.1l-10.6,6c1.8-1,3-3.2,3-6.4c0-3.6-1.5-7.6-3.8-11l10.6-6
							c2.3,3.4,3.8,7.4,3.8,11C314.9,372.9,313.8,375.1,311.9,376.1z"/>
					</g>
					<g id="XMLID_508_">
						<polygon id="XMLID_509_" class="st17" points="307.2,352.6 317.7,346.7 311.1,358.7 300.6,364.7 						"/>
					</g>
					<g id="XMLID_510_">
						<polygon id="XMLID_511_" class="st19" points="303.6,348.8 314.2,342.8 317.7,346.7 307.2,352.6 						"/>
					</g>
					<g id="XMLID_512_">
						<path id="XMLID_513_" class="st20" d="M303.6,348.8l3.5,3.8l-6.6,12c2.3,3.4,3.8,7.4,3.8,11c0,6.3-4.6,8.9-10.2,5.7l-2.1-1.2
							l0.1-22.9l2.1,1.2c1,0.6,2,1.3,3,2.2L303.6,348.8z"/>
					</g>
				</g>
				<g id="XMLID_514_" class="st0">
					<linearGradient id="XMLID_746_" gradientUnits="userSpaceOnUse" x1="290.6009" y1="357.0669" x2="304.4263" y2="381.0133">
						<stop  offset="0" style="stop-color:#F4F4F4"/>
						<stop  offset="1" style="stop-color:#DCDBDB"/>
					</linearGradient>
					<path id="XMLID_515_" class="st23" d="M294.5,357.4l-2.2-1.3l-2.8,1.6l2.2,1.3c6,3.4,10.8,11.5,10.8,18.2
						c0,3.3-1.2,5.7-3.2,6.8l2.8-1.6c1.9-1.1,3.1-3.4,3.2-6.8C305.3,368.9,300.5,360.8,294.5,357.4z"/>
					<g id="XMLID_516_">
						<path id="XMLID_517_" class="st8" d="M291.7,359c6,3.4,10.8,11.5,10.8,18.2c0,6.7-4.9,9.4-10.8,6l-2.2-1.3l0.1-24.2L291.7,359
							z"/>
					</g>
				</g>
			</g>
			<g id="XMLID_518_">
				<g id="XMLID_519_" class="st0">
					<linearGradient id="XMLID_747_" gradientUnits="userSpaceOnUse" x1="282.9729" y1="361.293" x2="296.8603" y2="385.3467">
						<stop  offset="0" style="stop-color:#F4F4F4"/>
						<stop  offset="1" style="stop-color:#DCDBDB"/>
					</linearGradient>
					<path id="XMLID_520_" class="st24" d="M292,358.8l-2.2-1.3l-13,7.3l2.2,1.3c6,3.4,10.8,11.5,10.8,18.2c0,3.3-1.2,5.7-3.2,6.8
						l13-7.3c1.9-1.1,3.1-3.4,3.2-6.8C302.8,370.3,298,362.2,292,358.8z"/>
					<g id="XMLID_521_">
						<path id="XMLID_522_" class="st8" d="M279,366.1c6,3.4,10.8,11.5,10.8,18.2c0,6.7-4.9,9.4-10.8,6l-2.2-1.3l0.1-24.2L279,366.1
							z"/>
					</g>
				</g>
				<g id="XMLID_523_" class="st0">
					<path id="XMLID_524_" class="st17" d="M278.5,367.3l-2.1-1.2l-10.6,6l2.1,1.2c1,0.6,2,1.3,3,2.2l10.6-6
						C280.6,368.6,279.6,367.9,278.5,367.3z"/>
					<g id="XMLID_525_">
						<path id="XMLID_526_" class="st18" d="M285.7,390.9l-10.6,6c1.8-1,3-3.2,3-6.4c0-3.6-1.5-7.6-3.8-11l10.6-6
							c2.3,3.4,3.8,7.4,3.8,11C288.7,387.6,287.6,389.8,285.7,390.9z"/>
					</g>
					<g id="XMLID_527_">
						<polygon id="XMLID_528_" class="st17" points="281,367.4 291.6,361.4 285,373.4 274.4,379.4 						"/>
					</g>
					<g id="XMLID_529_">
						<polygon id="XMLID_530_" class="st19" points="277.5,363.6 288,357.6 291.6,361.4 281,367.4 						"/>
					</g>
					<g id="XMLID_531_">
						<path id="XMLID_532_" class="st20" d="M277.5,363.6l3.5,3.8l-6.6,12c2.3,3.4,3.8,7.4,3.8,11c0,6.3-4.6,8.9-10.2,5.7l-2.1-1.2
							l0.1-22.9l2.1,1.2c1,0.6,2,1.3,3,2.2L277.5,363.6z"/>
					</g>
				</g>
				<g id="XMLID_533_" class="st0">
					<linearGradient id="XMLID_748_" gradientUnits="userSpaceOnUse" x1="264.4177" y1="371.8172" x2="278.243" y2="395.7634">
						<stop  offset="0" style="stop-color:#F4F4F4"/>
						<stop  offset="1" style="stop-color:#DCDBDB"/>
					</linearGradient>
					<path id="XMLID_534_" class="st25" d="M268.3,372.1l-2.2-1.3l-2.8,1.6l2.2,1.3c6,3.4,10.8,11.5,10.8,18.2
						c0,3.3-1.2,5.7-3.2,6.8l2.8-1.6c1.9-1.1,3.1-3.4,3.2-6.8C279.1,383.6,274.3,375.5,268.3,372.1z"/>
					<g id="XMLID_535_">
						<path id="XMLID_536_" class="st8" d="M265.5,373.7c6,3.4,10.8,11.5,10.8,18.2c0,6.7-4.9,9.4-10.8,6l-2.2-1.3l0.1-24.2
							L265.5,373.7z"/>
					</g>
				</g>
			</g>
			<g id="XMLID_537_">
				<g id="XMLID_538_" class="st0">
					<linearGradient id="XMLID_749_" gradientUnits="userSpaceOnUse" x1="256.7896" y1="376.0434" x2="270.677" y2="400.0971">
						<stop  offset="0" style="stop-color:#F4F4F4"/>
						<stop  offset="1" style="stop-color:#DCDBDB"/>
					</linearGradient>
					<path id="XMLID_539_" class="st26" d="M265.8,373.5l-2.2-1.3l-13,7.3l2.2,1.3c6,3.4,10.8,11.5,10.8,18.2c0,3.3-1.2,5.7-3.2,6.8
						l13-7.3c1.9-1.1,3.1-3.4,3.2-6.8C276.6,385,271.8,376.9,265.8,373.5z"/>
					<g id="XMLID_540_">
						<path id="XMLID_541_" class="st8" d="M252.8,380.9c6,3.4,10.8,11.5,10.8,18.2c0,6.7-4.9,9.4-10.8,6l-2.2-1.3l0.1-24.2
							L252.8,380.9z"/>
					</g>
				</g>
				<g id="XMLID_542_" class="st0">
					<path id="XMLID_543_" class="st17" d="M252.4,382l-2.1-1.2l-10.6,6l2.1,1.2c1,0.6,2,1.3,3,2.2l10.6-6
						C254.4,383.4,253.4,382.6,252.4,382z"/>
					<g id="XMLID_544_">
						<path id="XMLID_545_" class="st18" d="M259.6,405.6l-10.6,6c1.8-1,3-3.2,3-6.4c0-3.6-1.5-7.6-3.8-11l10.6-6
							c2.3,3.4,3.8,7.4,3.8,11C262.5,402.4,261.4,404.6,259.6,405.6z"/>
					</g>
					<g id="XMLID_546_">
						<polygon id="XMLID_547_" class="st17" points="254.8,382.2 265.4,376.2 258.8,388.2 248.2,394.2 						"/>
					</g>
					<g id="XMLID_548_">
						<polygon id="XMLID_549_" class="st19" points="251.3,378.3 261.9,372.3 265.4,376.2 254.8,382.2 						"/>
					</g>
					<g id="XMLID_550_">
						<path id="XMLID_551_" class="st20" d="M251.3,378.3l3.5,3.8l-6.6,12c2.3,3.4,3.8,7.4,3.8,11c0,6.3-4.6,8.9-10.2,5.7l-2.1-1.2
							l0.1-22.9l2.1,1.2c1,0.6,2,1.3,3,2.2L251.3,378.3z"/>
					</g>
				</g>
				<g id="XMLID_552_" class="st0">
					<linearGradient id="XMLID_750_" gradientUnits="userSpaceOnUse" x1="238.2349" y1="386.5678" x2="252.0603" y2="410.514">
						<stop  offset="0" style="stop-color:#F4F4F4"/>
						<stop  offset="1" style="stop-color:#DCDBDB"/>
					</linearGradient>
					<path id="XMLID_553_" class="st27" d="M242.1,386.9l-2.2-1.3l-2.8,1.6l2.2,1.3c6,3.4,10.8,11.5,10.8,18.2
						c0,3.3-1.2,5.7-3.2,6.8l2.8-1.6c1.9-1.1,3.1-3.4,3.2-6.8C252.9,398.4,248.1,390.3,242.1,386.9z"/>
					<g id="XMLID_554_">
						<path id="XMLID_555_" class="st8" d="M239.3,388.5c6,3.4,10.8,11.5,10.8,18.2c0,6.7-4.9,9.4-10.8,6l-2.2-1.3l0.1-24.2
							L239.3,388.5z"/>
					</g>
				</g>
			</g>
			<g id="XMLID_556_">
				<g id="XMLID_557_" class="st0">
					<linearGradient id="XMLID_751_" gradientUnits="userSpaceOnUse" x1="230.607" y1="390.7939" x2="244.4944" y2="414.8476">
						<stop  offset="0" style="stop-color:#F4F4F4"/>
						<stop  offset="1" style="stop-color:#DCDBDB"/>
					</linearGradient>
					<path id="XMLID_558_" class="st28" d="M239.6,388.3l-2.2-1.3l-13,7.3l2.2,1.3c6,3.4,10.8,11.5,10.8,18.2c0,3.3-1.2,5.7-3.2,6.8
						l13-7.3c1.9-1.1,3.1-3.4,3.2-6.8C250.4,399.8,245.6,391.7,239.6,388.3z"/>
					<g id="XMLID_559_">
						<path id="XMLID_560_" class="st8" d="M226.6,395.6c6,3.4,10.8,11.5,10.8,18.2c0,6.7-4.9,9.4-10.8,6l-2.2-1.3l0.1-24.2
							L226.6,395.6z"/>
					</g>
				</g>
				<g id="XMLID_561_" class="st0">
					<path id="XMLID_562_" class="st17" d="M226.2,396.8l-2.1-1.2l-10.6,6l2.1,1.2c1,0.6,2,1.3,3,2.2l10.6-6
						C228.2,398.1,227.2,397.4,226.2,396.8z"/>
					<g id="XMLID_563_">
						<path id="XMLID_564_" class="st18" d="M233.4,420.4l-10.6,6c1.8-1,3-3.2,3-6.4c0-3.6-1.5-7.6-3.8-11l10.6-6
							c2.3,3.4,3.8,7.4,3.8,11C236.3,417.1,235.2,419.3,233.4,420.4z"/>
					</g>
					<g id="XMLID_565_">
						<polygon id="XMLID_566_" class="st17" points="228.6,396.9 239.2,390.9 232.6,402.9 222,408.9 						"/>
					</g>
					<g id="XMLID_567_">
						<polygon id="XMLID_568_" class="st19" points="225.1,393.1 235.7,387.1 239.2,390.9 228.6,396.9 						"/>
					</g>
					<g id="XMLID_569_">
						<path id="XMLID_570_" class="st20" d="M225.1,393.1l3.5,3.8l-6.6,12c2.3,3.4,3.8,7.4,3.8,11c0,6.3-4.6,8.9-10.2,5.7l-2.1-1.2
							l0.1-22.9l2.1,1.2c1,0.6,2,1.3,3,2.2L225.1,393.1z"/>
					</g>
				</g>
				<g id="XMLID_571_" class="st0">
					<linearGradient id="XMLID_752_" gradientUnits="userSpaceOnUse" x1="212.0519" y1="401.3177" x2="225.8774" y2="425.2642">
						<stop  offset="0" style="stop-color:#F4F4F4"/>
						<stop  offset="1" style="stop-color:#DCDBDB"/>
					</linearGradient>
					<path id="XMLID_572_" class="st29" d="M215.9,401.6l-2.2-1.3l-2.8,1.6l2.2,1.3c6,3.4,10.8,11.5,10.8,18.2
						c0,3.3-1.2,5.7-3.2,6.8l2.8-1.6c1.9-1.1,3.1-3.4,3.2-6.8C226.7,413.1,221.9,405,215.9,401.6z"/>
					<g id="XMLID_573_">
						<path id="XMLID_574_" class="st8" d="M213.1,403.2c6,3.4,10.8,11.5,10.8,18.2c0,6.7-4.9,9.4-10.8,6l-2.2-1.3l0.1-24.2
							L213.1,403.2z"/>
					</g>
				</g>
			</g>
			<g id="XMLID_575_">
				<g id="XMLID_576_" class="st0">
					<linearGradient id="XMLID_753_" gradientUnits="userSpaceOnUse" x1="204.4241" y1="405.5443" x2="218.3113" y2="429.5976">
						<stop  offset="0" style="stop-color:#F4F4F4"/>
						<stop  offset="1" style="stop-color:#DCDBDB"/>
					</linearGradient>
					<path id="XMLID_577_" class="st30" d="M213.5,403l-2.2-1.3l-13,7.3l2.2,1.3c6,3.4,10.8,11.5,10.8,18.2c0,3.3-1.2,5.7-3.2,6.8
						l13-7.3c1.9-1.1,3.1-3.4,3.2-6.8C224.2,414.6,219.4,406.4,213.5,403z"/>
					<g id="XMLID_578_">
						<path id="XMLID_579_" class="st8" d="M200.4,410.4c6,3.4,10.8,11.5,10.8,18.2c0,6.7-4.9,9.4-10.8,6l-2.2-1.3l0.1-24.2
							L200.4,410.4z"/>
					</g>
				</g>
				<g id="XMLID_580_" class="st0">
					<path id="XMLID_581_" class="st17" d="M200,411.5l-2.1-1.2l-10.6,6l2.1,1.2c1,0.6,2,1.3,3,2.2l10.6-6
						C202,412.9,201,412.1,200,411.5z"/>
					<g id="XMLID_582_">
						<path id="XMLID_583_" class="st18" d="M207.2,435.1l-10.6,6c1.8-1,3-3.2,3-6.4c0-3.6-1.5-7.6-3.8-11l10.6-6
							c2.3,3.4,3.8,7.4,3.8,11C210.2,431.9,209,434.1,207.2,435.1z"/>
					</g>
					<g id="XMLID_584_">
						<polygon id="XMLID_585_" class="st17" points="202.4,411.7 213,405.7 206.4,417.7 195.8,423.7 						"/>
					</g>
					<g id="XMLID_586_">
						<polygon id="XMLID_587_" class="st19" points="198.9,407.8 209.5,401.8 213,405.7 202.4,411.7 						"/>
					</g>
					<g id="XMLID_588_">
						<path id="XMLID_589_" class="st20" d="M198.9,407.8l3.5,3.8l-6.6,12c2.3,3.4,3.8,7.4,3.8,11c0,6.3-4.6,8.9-10.2,5.7l-2.1-1.2
							l0.1-22.9l2.1,1.2c1,0.6,2,1.3,3,2.2L198.9,407.8z"/>
					</g>
				</g>
				<g id="XMLID_590_" class="st0">
					<linearGradient id="XMLID_772_" gradientUnits="userSpaceOnUse" x1="185.8692" y1="416.0684" x2="199.6945" y2="440.0145">
						<stop  offset="0" style="stop-color:#F4F4F4"/>
						<stop  offset="1" style="stop-color:#DCDBDB"/>
					</linearGradient>
					<path id="XMLID_591_" class="st31" d="M189.8,416.4l-2.2-1.3l-2.8,1.6l2.2,1.3c6,3.4,10.8,11.5,10.8,18.2
						c0,3.3-1.2,5.7-3.2,6.8l2.8-1.6c1.9-1.1,3.1-3.4,3.2-6.8C200.5,427.9,195.7,419.8,189.8,416.4z"/>
					<g id="XMLID_592_">
						<path id="XMLID_593_" class="st8" d="M187,418c6,3.4,10.8,11.5,10.8,18.2c0,6.7-4.9,9.4-10.8,6l-2.2-1.3l0.1-24.2L187,418z"/>
					</g>
				</g>
			</g>
			<g id="XMLID_594_">
				<g id="XMLID_595_" class="st0">
					<linearGradient id="XMLID_773_" gradientUnits="userSpaceOnUse" x1="178.2411" y1="420.2945" x2="192.1285" y2="444.3482">
						<stop  offset="0" style="stop-color:#F4F4F4"/>
						<stop  offset="1" style="stop-color:#DCDBDB"/>
					</linearGradient>
					<path id="XMLID_596_" class="st32" d="M187.3,417.8l-2.2-1.3l-13,7.3l2.2,1.3c6,3.4,10.8,11.5,10.8,18.2c0,3.3-1.2,5.7-3.2,6.8
						l13-7.3c1.9-1.1,3.1-3.4,3.2-6.8C198.1,429.3,193.2,421.2,187.3,417.8z"/>
					<g id="XMLID_597_">
						<path id="XMLID_598_" class="st8" d="M174.3,425.1c6,3.4,10.8,11.5,10.8,18.2c0,6.7-4.9,9.4-10.8,6l-2.2-1.3l0.1-24.2
							L174.3,425.1z"/>
					</g>
				</g>
				<g id="XMLID_599_">
					<g id="XMLID_600_" class="st0">
						<g id="XMLID_601_">
							<polygon id="XMLID_602_" class="st19" points="170.7,455.6 181.3,449.6 186.5,468.9 175.9,474.9 							"/>
						</g>
						<linearGradient id="XMLID_774_" gradientUnits="userSpaceOnUse" x1="166.5601" y1="427.8993" x2="179.6494" y2="450.5707">
							<stop  offset="0" style="stop-color:#459CB7"/>
							<stop  offset="1" style="stop-color:#327C9A"/>
						</linearGradient>
						<path id="XMLID_603_" class="st33" d="M174.2,426l-2.1-1.2l-10.6,6l2.1,1.2c5.6,3.2,10.2,10.9,10.2,17.2c0,3.1-1.1,5.3-3,6.4
							l10.6-6c1.8-1,3-3.2,3-6.4C184.4,436.9,179.9,429.2,174.2,426z"/>
						<g id="XMLID_604_">
							<path id="XMLID_605_" class="st20" d="M163.6,432c5.6,3.2,10.2,10.9,10.2,17.2c0,3.2-1.2,5.5-3.1,6.5l5.2,19.2l-3.6-0.6
								l-4.9-18.1c-1.2-0.1-2.4-0.6-3.8-1.3l-2.1-1.2l0.1-22.9L163.6,432z"/>
						</g>
					</g>
				</g>
				<g id="XMLID_606_" class="st0">
					<linearGradient id="XMLID_775_" gradientUnits="userSpaceOnUse" x1="159.6862" y1="430.8192" x2="173.5115" y2="454.7653">
						<stop  offset="0" style="stop-color:#F4F4F4"/>
						<stop  offset="1" style="stop-color:#DCDBDB"/>
					</linearGradient>
					<path id="XMLID_607_" class="st34" d="M163.6,431.1l-2.2-1.3l-2.8,1.6l2.2,1.3c6,3.4,10.8,11.5,10.8,18.2
						c0,3.3-1.2,5.7-3.2,6.8l2.8-1.6c1.9-1.1,3.1-3.4,3.2-6.8C174.4,442.6,169.6,434.5,163.6,431.1z"/>
					<g id="XMLID_608_">
						<path id="XMLID_609_" class="st8" d="M160.8,432.7c6,3.4,10.8,11.5,10.8,18.2c0,6.7-4.9,9.4-10.8,6l-2.2-1.3l0.1-24.2
							L160.8,432.7z"/>
					</g>
				</g>
			</g>
			<g id="XMLID_610_">
				<g id="XMLID_611_" class="st0">
					<linearGradient id="XMLID_776_" gradientUnits="userSpaceOnUse" x1="152.0582" y1="435.0452" x2="165.9454" y2="459.0985">
						<stop  offset="0" style="stop-color:#F4F4F4"/>
						<stop  offset="1" style="stop-color:#DCDBDB"/>
					</linearGradient>
					<path id="XMLID_612_" class="st35" d="M161.1,432.5l-2.2-1.3l-13,7.3l2.2,1.3c6,3.4,10.8,11.5,10.8,18.2c0,3.3-1.2,5.7-3.2,6.8
						l13-7.3c1.9-1.1,3.1-3.4,3.2-6.8C171.9,444.1,167.1,435.9,161.1,432.5z"/>
					<g id="XMLID_613_">
						<path id="XMLID_614_" class="st8" d="M148.1,439.9c6,3.4,10.8,11.5,10.8,18.2c0,6.7-4.9,9.4-10.8,6l-2.2-1.3l0.1-24.2
							L148.1,439.9z"/>
					</g>
				</g>
				<g id="XMLID_615_">
					<g id="XMLID_616_" class="st0">
						<g id="XMLID_617_">
							<polygon id="XMLID_618_" class="st19" points="144.5,470.4 155.1,464.4 160.3,483.6 149.7,489.6 							"/>
						</g>
						<linearGradient id="XMLID_777_" gradientUnits="userSpaceOnUse" x1="140.3773" y1="442.65" x2="153.4666" y2="465.3213">
							<stop  offset="0" style="stop-color:#459CB7"/>
							<stop  offset="1" style="stop-color:#327C9A"/>
						</linearGradient>
						<path id="XMLID_619_" class="st36" d="M148,440.7l-2.1-1.2l-10.6,6l2.1,1.2c5.6,3.2,10.2,10.9,10.2,17.2c0,3.1-1.1,5.3-3,6.4
							l10.6-6c1.8-1,3-3.2,3-6.4C158.2,451.6,153.7,443.9,148,440.7z"/>
						<g id="XMLID_620_">
							<path id="XMLID_621_" class="st20" d="M137.5,446.7c5.6,3.2,10.2,10.9,10.2,17.2c0,3.2-1.2,5.5-3.1,6.5l5.2,19.2l-3.6-0.6
								l-4.9-18.1c-1.2-0.1-2.4-0.6-3.8-1.3l-2.1-1.2l0.1-22.9L137.5,446.7z"/>
						</g>
					</g>
				</g>
				<g id="XMLID_622_" class="st0">
					<linearGradient id="XMLID_778_" gradientUnits="userSpaceOnUse" x1="133.5031" y1="445.5691" x2="147.3286" y2="469.5155">
						<stop  offset="0" style="stop-color:#F4F4F4"/>
						<stop  offset="1" style="stop-color:#DCDBDB"/>
					</linearGradient>
					<path id="XMLID_623_" class="st37" d="M137.4,445.9l-2.2-1.3l-2.8,1.6l2.2,1.3c6,3.4,10.8,11.5,10.8,18.2
						c0,3.3-1.2,5.7-3.2,6.8l2.8-1.6c1.9-1.1,3.1-3.4,3.2-6.8C148.2,457.4,143.4,449.3,137.4,445.9z"/>
					<g id="XMLID_624_">
						<path id="XMLID_625_" class="st8" d="M134.6,447.5c6,3.4,10.8,11.5,10.8,18.2c0,6.7-4.9,9.4-10.8,6l-2.2-1.3l0.1-24.2
							L134.6,447.5z"/>
					</g>
				</g>
			</g>
			<g id="XMLID_626_">
				<g id="XMLID_627_" class="st0">
					<linearGradient id="XMLID_779_" gradientUnits="userSpaceOnUse" x1="125.8751" y1="449.7952" x2="139.7625" y2="473.8489">
						<stop  offset="0" style="stop-color:#F4F4F4"/>
						<stop  offset="1" style="stop-color:#DCDBDB"/>
					</linearGradient>
					<path id="XMLID_628_" class="st38" d="M134.9,447.3l-2.2-1.3l-13,7.3l2.2,1.3c6,3.4,10.8,11.5,10.8,18.2c0,3.3-1.2,5.7-3.2,6.8
						l13-7.3c1.9-1.1,3.1-3.4,3.2-6.8C145.7,458.8,140.9,450.7,134.9,447.3z"/>
					<g id="XMLID_629_">
						<path id="XMLID_630_" class="st8" d="M121.9,454.6c6,3.4,10.8,11.5,10.8,18.2c0,6.7-4.9,9.4-10.8,6l-2.2-1.3l0.1-24.2
							L121.9,454.6z"/>
					</g>
				</g>
				<g id="XMLID_631_">
					<g id="XMLID_632_" class="st0">
						<g id="XMLID_633_">
							<polygon id="XMLID_634_" class="st19" points="118.3,485.2 128.8,479.2 134,498.4 123.5,504.4 							"/>
						</g>
						<linearGradient id="XMLID_780_" gradientUnits="userSpaceOnUse" x1="114.1379" y1="457.4318" x2="127.2274" y2="480.1034">
							<stop  offset="0" style="stop-color:#459CB7"/>
							<stop  offset="1" style="stop-color:#327C9A"/>
						</linearGradient>
						<path id="XMLID_635_" class="st39" d="M121.8,455.5l-2.1-1.2l-10.6,6l2.1,1.2c5.6,3.2,10.2,10.9,10.2,17.2
							c0,3.1-1.1,5.3-3,6.4l10.6-6c1.8-1,3-3.2,3-6.4C132,466.4,127.4,458.7,121.8,455.5z"/>
						<g id="XMLID_636_">
							<path id="XMLID_637_" class="st20" d="M111.2,461.5c5.6,3.2,10.2,10.9,10.2,17.2c0,3.2-1.2,5.5-3.1,6.5l5.2,19.2l-3.6-0.6
								l-4.9-18.1c-1.2-0.1-2.4-0.6-3.8-1.3l-2.1-1.2l0.1-22.9L111.2,461.5z"/>
						</g>
					</g>
				</g>
				<g id="XMLID_638_" class="st0">
					<linearGradient id="XMLID_781_" gradientUnits="userSpaceOnUse" x1="107.3204" y1="460.3196" x2="121.1459" y2="484.266">
						<stop  offset="0" style="stop-color:#F4F4F4"/>
						<stop  offset="1" style="stop-color:#DCDBDB"/>
					</linearGradient>
					<path id="XMLID_639_" class="st40" d="M111.2,460.6l-2.2-1.3l-2.8,1.6l2.2,1.3c6,3.4,10.8,11.5,10.8,18.2
						c0,3.3-1.2,5.7-3.2,6.8l2.8-1.6c1.9-1.1,3.1-3.4,3.2-6.8C122,472.1,117.2,464,111.2,460.6z"/>
					<g id="XMLID_640_">
						<path id="XMLID_641_" class="st8" d="M108.4,462.2c6,3.4,10.8,11.5,10.8,18.2c0,6.7-4.9,9.4-10.8,6l-2.2-1.3l0.1-24.2
							L108.4,462.2z"/>
					</g>
				</g>
			</g>
			<g id="XMLID_642_">
				<g id="XMLID_643_">
					<g id="XMLID_644_">
						<path id="XMLID_645_" class="st41" d="M382.1,294.1l-13,7.3v-11.7l13-7.3V294.1z"/>
						<g id="XMLID_647_">
							<g id="XMLID_648_">
								<path id="XMLID_649_" class="st41" d="M379.8,274.1c0,2.2-1.9,5.1-4.1,6.4c-2.3,1.3-4.1,0.5-4.1-1.7s1.9-5.1,4.1-6.4
									C378,271.1,379.8,271.8,379.8,274.1z"/>
								<path id="XMLID_650_" class="st42" d="M378.2,275c0,1.4-1.1,3.1-2.5,3.9c-1.4,0.8-2.5,0.3-2.5-1s1.1-3.1,2.5-3.9
									C377.1,273.1,378.2,273.6,378.2,275z"/>
							</g>
						</g>
					</g>
					<g id="XMLID_651_">
						<path id="XMLID_652_" class="st41" d="M356.2,308.7l-13,7.3v-11.7l13-7.3V308.7z"/>
						<g id="XMLID_654_">
							<g id="XMLID_655_">
								<path id="XMLID_656_" class="st41" d="M353.9,288.7c0,2.2-1.9,5.1-4.1,6.4c-2.3,1.3-4.1,0.5-4.1-1.7s1.9-5.1,4.1-6.4
									C352.1,285.7,353.9,286.4,353.9,288.7z"/>
								<path id="XMLID_657_" class="st42" d="M352.3,289.6c0,1.4-1.1,3.1-2.5,3.9c-1.4,0.8-2.5,0.3-2.5-1c0-1.4,1.1-3.1,2.5-3.9
									C351.2,287.7,352.3,288.2,352.3,289.6z"/>
							</g>
						</g>
					</g>
					<g id="XMLID_658_">
						<path id="XMLID_659_" class="st41" d="M330.3,323.3l-13,7.3v-11.7l13-7.3V323.3z"/>
						<g id="XMLID_661_">
							<g id="XMLID_662_">
								<path id="XMLID_663_" class="st41" d="M328,303.3c0,2.2-1.9,5.1-4.1,6.4s-4.1,0.5-4.1-1.7c0-2.2,1.9-5.1,4.1-6.4
									C326.2,300.3,328,301,328,303.3z"/>
								<path id="XMLID_664_" class="st42" d="M326.4,304.2c0,1.4-1.1,3.1-2.5,3.9c-1.4,0.8-2.5,0.3-2.5-1c0-1.4,1.1-3.1,2.5-3.9
									C325.3,302.3,326.4,302.8,326.4,304.2z"/>
							</g>
						</g>
					</g>
					<g id="XMLID_665_">
						<path id="XMLID_666_" class="st41" d="M304.4,337.9l-13,7.3v-11.7l13-7.3V337.9z"/>
						<g id="XMLID_668_">
							<g id="XMLID_669_">
								<path id="XMLID_670_" class="st41" d="M302.1,317.9c0,2.2-1.9,5.1-4.1,6.4c-2.3,1.3-4.1,0.5-4.1-1.7c0-2.2,1.9-5.1,4.1-6.4
									C300.3,314.9,302.1,315.6,302.1,317.9z"/>
								<path id="XMLID_671_" class="st42" d="M300.5,318.7c0,1.4-1.1,3.1-2.5,3.9c-1.4,0.8-2.5,0.3-2.5-1c0-1.4,1.1-3.1,2.5-3.9
									C299.4,316.9,300.5,317.4,300.5,318.7z"/>
							</g>
						</g>
					</g>
					<g id="XMLID_672_">
						<path id="XMLID_673_" class="st41" d="M278.5,352.5l-13,7.3v-11.7l13-7.3V352.5z"/>
						<g id="XMLID_675_">
							<g id="XMLID_676_">
								<path id="XMLID_677_" class="st41" d="M276.2,332.4c0,2.2-1.9,5.1-4.1,6.4c-2.3,1.3-4.1,0.5-4.1-1.7c0-2.2,1.9-5.1,4.1-6.4
									C274.4,329.5,276.2,330.2,276.2,332.4z"/>
								<path id="XMLID_678_" class="st42" d="M274.6,333.3c0,1.4-1.1,3.1-2.5,3.9c-1.4,0.8-2.5,0.3-2.5-1c0-1.4,1.1-3.1,2.5-3.9
									C273.5,331.5,274.6,332,274.6,333.3z"/>
							</g>
						</g>
					</g>
					<g id="XMLID_679_">
						<path id="XMLID_680_" class="st41" d="M252.6,367.1l-13,7.3v-11.7l13-7.3V367.1z"/>
						<g id="XMLID_682_">
							<g id="XMLID_683_">
								<path id="XMLID_684_" class="st41" d="M250.3,347c0,2.2-1.9,5.1-4.1,6.4c-2.3,1.3-4.1,0.5-4.1-1.7c0-2.2,1.9-5.1,4.1-6.4
									C248.4,344.1,250.3,344.8,250.3,347z"/>
								<path id="XMLID_685_" class="st42" d="M248.7,347.9c0,1.4-1.1,3.1-2.5,3.9c-1.4,0.8-2.5,0.3-2.5-1c0-1.4,1.1-3.1,2.5-3.9
									C247.6,346.1,248.7,346.6,248.7,347.9z"/>
							</g>
						</g>
					</g>
					<g id="XMLID_686_">
						<path id="XMLID_687_" class="st41" d="M226.7,381.6l-13,7.3v-11.7l13-7.3V381.6z"/>
						<g id="XMLID_689_">
							<g id="XMLID_690_">
								<path id="XMLID_691_" class="st41" d="M224.4,361.6c0,2.2-1.9,5.1-4.1,6.4c-2.3,1.3-4.1,0.5-4.1-1.7c0-2.2,1.9-5.1,4.1-6.4
									C222.5,358.6,224.4,359.4,224.4,361.6z"/>
								<path id="XMLID_692_" class="st42" d="M222.8,362.5c0,1.4-1.1,3.1-2.5,3.9c-1.4,0.8-2.5,0.3-2.5-1c0-1.4,1.1-3.1,2.5-3.9
									C221.7,360.7,222.8,361.2,222.8,362.5z"/>
							</g>
						</g>
					</g>
					<g id="XMLID_693_">
						<path id="XMLID_694_" class="st41" d="M200.8,396.2l-13,7.3v-11.7l13-7.3V396.2z"/>
						<g id="XMLID_696_">
							<g id="XMLID_697_">
								<path id="XMLID_698_" class="st41" d="M198.5,376.2c0,2.2-1.9,5.1-4.1,6.4c-2.3,1.3-4.1,0.5-4.1-1.7c0-2.2,1.9-5.1,4.1-6.4
									C196.6,373.2,198.5,374,198.5,376.2z"/>
								<path id="XMLID_699_" class="st42" d="M196.9,377.1c0,1.4-1.1,3.1-2.5,3.9s-2.5,0.3-2.5-1s1.1-3.1,2.5-3.9
									C195.8,375.3,196.9,375.8,196.9,377.1z"/>
							</g>
						</g>
					</g>
					<g id="XMLID_700_">
						<path id="XMLID_701_" class="st41" d="M174.9,410.8l-13,7.3v-11.7l13-7.3V410.8z"/>
						<g id="XMLID_703_">
							<g id="XMLID_704_">
								<path id="XMLID_705_" class="st41" d="M172.6,390.8c0,2.2-1.9,5.1-4.1,6.4c-2.3,1.3-4.1,0.5-4.1-1.7c0-2.2,1.9-5.1,4.1-6.4
									C170.7,387.8,172.6,388.6,172.6,390.8z"/>
								<path id="XMLID_706_" class="st43" d="M171,391.7c0,1.4-1.1,3.1-2.5,3.9c-1.4,0.8-2.5,0.3-2.5-1c0-1.4,1.1-3.1,2.5-3.9
									C169.9,389.9,171,390.4,171,391.7z"/>
							</g>
						</g>
					</g>
					<g id="XMLID_707_">
						<path id="XMLID_708_" class="st41" d="M148.9,425.4l-13,7.3V421l13-7.3V425.4z"/>
						<g id="XMLID_710_">
							<g id="XMLID_711_">
								<path id="XMLID_712_" class="st41" d="M146.7,405.4c0,2.2-1.9,5.1-4.1,6.4c-2.3,1.3-4.1,0.5-4.1-1.7c0-2.2,1.9-5.1,4.1-6.4
									C144.8,402.4,146.7,403.2,146.7,405.4z"/>
								<path id="XMLID_713_" class="st43" d="M145.1,406.3c0,1.4-1.1,3.1-2.5,3.9c-1.4,0.8-2.5,0.3-2.5-1c0-1.4,1.1-3.1,2.5-3.9
									C143.9,404.5,145.1,404.9,145.1,406.3z"/>
							</g>
						</g>
					</g>
					<g id="XMLID_714_">
						<path id="XMLID_715_" class="st41" d="M123,440l-13,7.3v-11.7l13-7.3V440z"/>
						<g id="XMLID_717_">
							<g id="XMLID_718_">
								<path id="XMLID_719_" class="st41" d="M120.8,420c0,2.2-1.9,5.1-4.1,6.4c-2.3,1.3-4.1,0.5-4.1-1.7c0-2.2,1.9-5.1,4.1-6.4
									C118.9,417,120.8,417.8,120.8,420z"/>
								<path id="XMLID_720_" class="st43" d="M119.2,420.9c0,1.4-1.1,3.1-2.5,3.9c-1.4,0.8-2.5,0.3-2.5-1c0-1.4,1.1-3.1,2.5-3.9
									C118,419.1,119.2,419.5,119.2,420.9z"/>
							</g>
						</g>
					</g>
				</g>
				
					<radialGradient id="XMLID_782_" cx="363.7359" cy="248.5649" r="87.8762" gradientTransform="matrix(0.9466 0 0 0.9237 31.1636 46.8058)" gradientUnits="userSpaceOnUse">
					<stop  offset="0" style="stop-color:#79C145"/>
					<stop  offset="1.477891e-002" style="stop-color:#689F42"/>
					<stop  offset="3.741216e-002" style="stop-color:#547B3D"/>
					<stop  offset="6.284162e-002" style="stop-color:#415D35"/>
					<stop  offset="9.054419e-002" style="stop-color:#33462D"/>
					<stop  offset="0.1212" style="stop-color:#273424"/>
					<stop  offset="0.1557" style="stop-color:#1C251B"/>
					<stop  offset="0.1961" style="stop-color:#121812"/>
					<stop  offset="0.246" style="stop-color:#090C09"/>
					<stop  offset="0.3159" style="stop-color:#030403"/>
					<stop  offset="0.5102" style="stop-color:#010101"/>
				</radialGradient>
				<ellipse id="XMLID_721_" class="st44" cx="375.5" cy="276.4" rx="83.2" ry="81.2"/>
				
					<radialGradient id="XMLID_783_" cx="336.4787" cy="264.3018" r="87.8764" gradientTransform="matrix(0.9466 0 0 0.9237 31.1636 46.8058)" gradientUnits="userSpaceOnUse">
					<stop  offset="0" style="stop-color:#79C145"/>
					<stop  offset="1.477891e-002" style="stop-color:#689F42"/>
					<stop  offset="3.741216e-002" style="stop-color:#547B3D"/>
					<stop  offset="6.284162e-002" style="stop-color:#415D35"/>
					<stop  offset="9.054419e-002" style="stop-color:#33462D"/>
					<stop  offset="0.1212" style="stop-color:#273424"/>
					<stop  offset="0.1557" style="stop-color:#1C251B"/>
					<stop  offset="0.1961" style="stop-color:#121812"/>
					<stop  offset="0.246" style="stop-color:#090C09"/>
					<stop  offset="0.3159" style="stop-color:#030403"/>
					<stop  offset="0.5102" style="stop-color:#010101"/>
				</radialGradient>
				<ellipse id="XMLID_722_" class="st45" cx="349.7" cy="290.9" rx="83.2" ry="81.2"/>
				
					<radialGradient id="XMLID_784_" cx="309.2212" cy="280.039" r="87.8765" gradientTransform="matrix(0.9466 0 0 0.9237 31.1636 46.8058)" gradientUnits="userSpaceOnUse">
					<stop  offset="0" style="stop-color:#79C145"/>
					<stop  offset="1.477891e-002" style="stop-color:#689F42"/>
					<stop  offset="3.741216e-002" style="stop-color:#547B3D"/>
					<stop  offset="6.284162e-002" style="stop-color:#415D35"/>
					<stop  offset="9.054419e-002" style="stop-color:#33462D"/>
					<stop  offset="0.1212" style="stop-color:#273424"/>
					<stop  offset="0.1557" style="stop-color:#1C251B"/>
					<stop  offset="0.1961" style="stop-color:#121812"/>
					<stop  offset="0.246" style="stop-color:#090C09"/>
					<stop  offset="0.3159" style="stop-color:#030403"/>
					<stop  offset="0.5102" style="stop-color:#010101"/>
				</radialGradient>
				<ellipse id="XMLID_723_" class="st46" cx="323.9" cy="305.5" rx="83.2" ry="81.2"/>
				
					<radialGradient id="XMLID_785_" cx="281.964" cy="295.776" r="87.8764" gradientTransform="matrix(0.9466 0 0 0.9237 31.1636 46.8058)" gradientUnits="userSpaceOnUse">
					<stop  offset="0" style="stop-color:#79C145"/>
					<stop  offset="1.477891e-002" style="stop-color:#689F42"/>
					<stop  offset="3.741216e-002" style="stop-color:#547B3D"/>
					<stop  offset="6.284162e-002" style="stop-color:#415D35"/>
					<stop  offset="9.054419e-002" style="stop-color:#33462D"/>
					<stop  offset="0.1212" style="stop-color:#273424"/>
					<stop  offset="0.1557" style="stop-color:#1C251B"/>
					<stop  offset="0.1961" style="stop-color:#121812"/>
					<stop  offset="0.246" style="stop-color:#090C09"/>
					<stop  offset="0.3159" style="stop-color:#030403"/>
					<stop  offset="0.5102" style="stop-color:#010101"/>
				</radialGradient>
				<ellipse id="XMLID_724_" class="st47" cx="298.1" cy="320" rx="83.2" ry="81.2"/>
				
					<radialGradient id="XMLID_786_" cx="254.7064" cy="311.5132" r="87.8762" gradientTransform="matrix(0.9466 0 0 0.9237 31.1636 46.8058)" gradientUnits="userSpaceOnUse">
					<stop  offset="0" style="stop-color:#79C145"/>
					<stop  offset="1.477891e-002" style="stop-color:#689F42"/>
					<stop  offset="3.741216e-002" style="stop-color:#547B3D"/>
					<stop  offset="6.284162e-002" style="stop-color:#415D35"/>
					<stop  offset="9.054419e-002" style="stop-color:#33462D"/>
					<stop  offset="0.1212" style="stop-color:#273424"/>
					<stop  offset="0.1557" style="stop-color:#1C251B"/>
					<stop  offset="0.1961" style="stop-color:#121812"/>
					<stop  offset="0.246" style="stop-color:#090C09"/>
					<stop  offset="0.3159" style="stop-color:#030403"/>
					<stop  offset="0.5102" style="stop-color:#010101"/>
				</radialGradient>
				<ellipse id="XMLID_725_" class="st48" cx="272.3" cy="334.5" rx="83.2" ry="81.2"/>
				
					<radialGradient id="XMLID_787_" cx="227.4492" cy="327.2501" r="87.8764" gradientTransform="matrix(0.9466 0 0 0.9237 31.1636 46.8058)" gradientUnits="userSpaceOnUse">
					<stop  offset="0" style="stop-color:#79C145"/>
					<stop  offset="1.477891e-002" style="stop-color:#689F42"/>
					<stop  offset="3.741216e-002" style="stop-color:#547B3D"/>
					<stop  offset="6.284162e-002" style="stop-color:#415D35"/>
					<stop  offset="9.054419e-002" style="stop-color:#33462D"/>
					<stop  offset="0.1212" style="stop-color:#273424"/>
					<stop  offset="0.1557" style="stop-color:#1C251B"/>
					<stop  offset="0.1961" style="stop-color:#121812"/>
					<stop  offset="0.246" style="stop-color:#090C09"/>
					<stop  offset="0.3159" style="stop-color:#030403"/>
					<stop  offset="0.5102" style="stop-color:#010101"/>
				</radialGradient>
				<ellipse id="XMLID_726_" class="st49" cx="246.5" cy="349.1" rx="83.2" ry="81.2"/>
				
					<radialGradient id="XMLID_788_" cx="200.1917" cy="342.9874" r="87.8765" gradientTransform="matrix(0.9466 0 0 0.9237 31.1636 46.8058)" gradientUnits="userSpaceOnUse">
					<stop  offset="0" style="stop-color:#79C145"/>
					<stop  offset="1.477891e-002" style="stop-color:#689F42"/>
					<stop  offset="3.741216e-002" style="stop-color:#547B3D"/>
					<stop  offset="6.284162e-002" style="stop-color:#415D35"/>
					<stop  offset="9.054419e-002" style="stop-color:#33462D"/>
					<stop  offset="0.1212" style="stop-color:#273424"/>
					<stop  offset="0.1557" style="stop-color:#1C251B"/>
					<stop  offset="0.1961" style="stop-color:#121812"/>
					<stop  offset="0.246" style="stop-color:#090C09"/>
					<stop  offset="0.3159" style="stop-color:#030403"/>
					<stop  offset="0.5102" style="stop-color:#010101"/>
				</radialGradient>
				<ellipse id="XMLID_727_" class="st50" cx="220.7" cy="363.6" rx="83.2" ry="81.2"/>
				
					<radialGradient id="XMLID_789_" cx="172.9344" cy="358.7243" r="87.8764" gradientTransform="matrix(0.9466 0 0 0.9237 31.1636 46.8058)" gradientUnits="userSpaceOnUse">
					<stop  offset="0" style="stop-color:#79C145"/>
					<stop  offset="1.477891e-002" style="stop-color:#689F42"/>
					<stop  offset="3.741216e-002" style="stop-color:#547B3D"/>
					<stop  offset="6.284162e-002" style="stop-color:#415D35"/>
					<stop  offset="9.054419e-002" style="stop-color:#33462D"/>
					<stop  offset="0.1212" style="stop-color:#273424"/>
					<stop  offset="0.1557" style="stop-color:#1C251B"/>
					<stop  offset="0.1961" style="stop-color:#121812"/>
					<stop  offset="0.246" style="stop-color:#090C09"/>
					<stop  offset="0.3159" style="stop-color:#030403"/>
					<stop  offset="0.5102" style="stop-color:#010101"/>
				</radialGradient>
				<ellipse id="XMLID_728_" class="st51" cx="194.9" cy="378.2" rx="83.2" ry="81.2"/>
			</g>
		</g>
		<polygon id="XMLID_729_" class="st52" points="380.8,257.9 109.6,410.7 109.6,375 380.8,222.2 		"/>
	</g>
	<g id="XMLID_731_" class="st0">
		<path id="XMLID_732_" class="st53" d="M538.1,257.3l-121.3-68.3c-6.2-3.5-11.2-0.7-11.2,6.3l143.7,81
			C549.3,269.3,544.3,260.7,538.1,257.3z"/>
		<path id="XMLID_733_" class="st54" d="M408.8,188.1L110.2,356.8c2-1.2,4.9-1,8,0.8l298.6-168.7C413.6,187.1,410.8,187,408.8,188.1
			z"/>
		<polygon id="XMLID_734_" class="st55" points="416.7,188.9 118.1,357.6 239.4,425.9 538,257.2 		"/>
		<linearGradient id="XMLID_790_" gradientUnits="userSpaceOnUse" x1="389.1335" y1="339.4895" x2="401.7382" y2="361.3215">
			<stop  offset="0" style="stop-color:#73C8B2"/>
			<stop  offset="0.2876" style="stop-color:#69BFB0"/>
			<stop  offset="1" style="stop-color:#51B1AF"/>
		</linearGradient>
		<path id="XMLID_735_" class="st56" d="M538,257.2L239.4,425.9c6.2,3.5,11.2,12,11.2,18.9l298.6-168.7
			C549.3,269.2,544.2,260.7,538,257.2z"/>
		<path id="XMLID_736_" class="st53" d="M239.4,425.9l-121.3-68.3c-6.2-3.5-11.2-0.7-11.2,6.3l143.7,81
			C250.7,437.9,245.6,429.4,239.4,425.9z"/>
	</g>
</g>
</svg>
