<?xml version="1.0" encoding="utf-8"?>
<!-- Generator: Adobe Illustrator 19.0.0, SVG Export Plug-In . SVG Version: 6.00 Build 0)  -->
<svg version="1.1" id="Warstwa_1" xmlns="http://www.w3.org/2000/svg" xmlns:xlink="http://www.w3.org/1999/xlink" x="0px" y="0px"
	 viewBox="0 0 100 100" style="enable-background:new 0 0 100 100;" xml:space="preserve">
<style type="text/css">
	.st0{fill:#A0A2A3;}
	.st1{fill:#E9ECED;}
	.st2{fill:#3C3C40;}
	.st3{fill:#C0C6C7;}
	.st4{enable-background:new    ;}
	.st5{fill:#DBDEDF;}
	.st6{fill:#F5F8F8;}
	.st7{opacity:0.4;fill:url(#SVGID_1_);}
	.st8{opacity:0.4;fill:url(#SVGID_2_);}
	.st9{opacity:0.4;fill:url(#SVGID_3_);}
	.st10{opacity:0.4;fill:url(#SVGID_4_);}
	.st11{opacity:0.4;fill:url(#SVGID_5_);}
	.st12{opacity:0.4;fill:url(#SVGID_6_);}
	.st13{opacity:0.4;fill:url(#SVGID_7_);}
	.st14{opacity:0.4;fill:url(#SVGID_8_);}
	.st15{opacity:0.4;fill:url(#SVGID_9_);}
	.st16{opacity:0.4;fill:url(#SVGID_10_);}
	.st17{opacity:0.4;fill:url(#SVGID_11_);}
	.st18{opacity:0.4;fill:url(#SVGID_12_);}
	.st19{opacity:0.4;fill:url(#SVGID_13_);}
	.st20{opacity:0.4;fill:url(#SVGID_14_);}
	.st21{opacity:0.4;fill:url(#SVGID_15_);}
	.st22{opacity:0.4;fill:url(#SVGID_16_);}
	.st23{fill:#49494E;}
	.st24{fill:#606065;}
	.st25{fill:#D7CEBE;}
	.st26{fill:#EFE9DB;}
	.st27{fill:#FAF5EE;}
	.st28{fill:#FFFFFF;}
	.st29{fill:#525252;}
	.st30{fill:#373734;}
	.st31{fill:#DAAC27;}
</style>
<g id="_x35__1_">
	<g id="_x35_">
		<g>
			<g>
				<g>
					<polygon class="st0" points="43,60.1 37,56.5 37,39.6 43.1,43.2 					"/>
					<polygon class="st1" points="43.1,43.2 37,39.6 42.6,36.4 48.6,40 					"/>
					<polygon class="st2" points="48.6,40 48.6,56.9 43,60.1 43.1,43.2 					"/>
				</g>
				<g>
					<polygon class="st0" points="35.5,64.4 29.4,60.9 29.5,44 35.5,47.5 					"/>
					<polygon class="st1" points="35.5,47.5 29.5,44 35,40.8 41.1,44.3 					"/>
					<polygon class="st2" points="41.1,44.3 41,61.2 35.5,64.4 35.5,47.5 					"/>
				</g>
				<g>
					<polygon class="st0" points="27.9,68.8 21.9,65.2 21.9,48.3 28,51.9 					"/>
					<polygon class="st1" points="28,51.9 21.9,48.3 27.4,45.1 33.5,48.7 					"/>
					<polygon class="st2" points="33.5,48.7 33.5,65.6 27.9,68.8 28,51.9 					"/>
				</g>
			</g>
			<g id="Axonometric_Cube">
				<polygon id="Cube_face_-_left_78_" class="st0" points="44.6,89 21.4,75.6 21.4,53 44.6,66.3 				"/>
				<polygon id="Cube_face_-_right_78_" class="st3" points="77.8,69.8 44.6,89 44.6,66.3 77.8,47.2 				"/>
				<polygon id="Cube_face_-_top_78_" class="st1" points="44.6,66.3 21.4,53 54.7,33.8 77.8,47.2 				"/>
			</g>
			<g class="st4">
				<g>
					<polygon class="st5" points="24.6,53.3 57.9,34.1 64.2,34.5 31,53.7 					"/>
				</g>
				<g>
					<polygon class="st1" points="31,53.7 64.2,34.5 68.6,37 35.4,56.3 					"/>
				</g>
				<g>
					<polygon class="st3" points="41.6,63.1 74.9,43.9 74.9,45.5 41.6,64.7 					"/>
				</g>
				<g>
					<polygon class="st6" points="35.4,56.3 68.6,37 74.9,43.9 41.6,63.1 					"/>
				</g>
				<g>
					<polygon class="st0" points="35.4,56.3 41.6,63.1 41.6,64.7 24.6,54.9 24.6,53.3 31,53.7 					"/>
				</g>
			</g>
		</g>
		<g>
			<g>
				<linearGradient id="SVGID_1_" gradientUnits="userSpaceOnUse" x1="27.6548" y1="60.8229" x2="27.3759" y2="61.3061">
					<stop  offset="0" style="stop-color:#505557"/>
					<stop  offset="1" style="stop-color:#6B6F71"/>
				</linearGradient>
				<polygon class="st7" points="31.6,63.8 23.4,59 23.4,58.4 31.6,63.1 				"/>
				<linearGradient id="SVGID_2_" gradientUnits="userSpaceOnUse" x1="27.6548" y1="61.8666" x2="27.3759" y2="62.3498">
					<stop  offset="0" style="stop-color:#505557"/>
					<stop  offset="1" style="stop-color:#6B6F71"/>
				</linearGradient>
				<polygon class="st8" points="31.6,64.8 23.4,60.1 23.4,59.4 31.6,64.2 				"/>
				<linearGradient id="SVGID_3_" gradientUnits="userSpaceOnUse" x1="27.6548" y1="62.9103" x2="27.3758" y2="63.3935">
					<stop  offset="0" style="stop-color:#505557"/>
					<stop  offset="1" style="stop-color:#6B6F71"/>
				</linearGradient>
				<polygon class="st9" points="31.6,65.8 23.4,61.1 23.4,60.5 31.6,65.2 				"/>
				<linearGradient id="SVGID_4_" gradientUnits="userSpaceOnUse" x1="27.6549" y1="63.954" x2="27.3759" y2="64.4373">
					<stop  offset="0" style="stop-color:#505557"/>
					<stop  offset="1" style="stop-color:#6B6F71"/>
				</linearGradient>
				<polygon class="st10" points="31.6,66.9 23.4,62.1 23.4,61.5 31.6,66.2 				"/>
				<linearGradient id="SVGID_5_" gradientUnits="userSpaceOnUse" x1="27.6549" y1="64.9977" x2="27.3759" y2="65.481">
					<stop  offset="0" style="stop-color:#505557"/>
					<stop  offset="1" style="stop-color:#6B6F71"/>
				</linearGradient>
				<polygon class="st11" points="31.6,67.9 23.4,63.2 23.4,62.5 31.6,67.3 				"/>
				<linearGradient id="SVGID_6_" gradientUnits="userSpaceOnUse" x1="27.6549" y1="66.0414" x2="27.3759" y2="66.5247">
					<stop  offset="0" style="stop-color:#505557"/>
					<stop  offset="1" style="stop-color:#6B6F71"/>
				</linearGradient>
				<polygon class="st12" points="31.6,69 23.4,64.2 23.4,63.6 31.6,68.3 				"/>
				<linearGradient id="SVGID_7_" gradientUnits="userSpaceOnUse" x1="27.6549" y1="67.0852" x2="27.3759" y2="67.5684">
					<stop  offset="0" style="stop-color:#505557"/>
					<stop  offset="1" style="stop-color:#6B6F71"/>
				</linearGradient>
				<polygon class="st13" points="31.6,70 23.4,65.3 23.4,64.6 31.6,69.4 				"/>
				<linearGradient id="SVGID_8_" gradientUnits="userSpaceOnUse" x1="27.6548" y1="68.1289" x2="27.3759" y2="68.6121">
					<stop  offset="0" style="stop-color:#505557"/>
					<stop  offset="1" style="stop-color:#6B6F71"/>
				</linearGradient>
				<polygon class="st14" points="31.6,71.1 23.4,66.3 23.4,65.7 31.6,70.4 				"/>
			</g>
			<g>
				<linearGradient id="SVGID_9_" gradientUnits="userSpaceOnUse" x1="38.5425" y1="67.1089" x2="38.2635" y2="67.5922">
					<stop  offset="0" style="stop-color:#505557"/>
					<stop  offset="1" style="stop-color:#6B6F71"/>
				</linearGradient>
				<polygon class="st15" points="42.5,70 34.3,65.3 34.3,64.7 42.5,69.4 				"/>
				<linearGradient id="SVGID_10_" gradientUnits="userSpaceOnUse" x1="38.5425" y1="68.1526" x2="38.2635" y2="68.6359">
					<stop  offset="0" style="stop-color:#505557"/>
					<stop  offset="1" style="stop-color:#6B6F71"/>
				</linearGradient>
				<polygon class="st16" points="42.5,71.1 34.3,66.3 34.3,65.7 42.5,70.4 				"/>
				<linearGradient id="SVGID_11_" gradientUnits="userSpaceOnUse" x1="38.5426" y1="69.1964" x2="38.2636" y2="69.6796">
					<stop  offset="0" style="stop-color:#505557"/>
					<stop  offset="1" style="stop-color:#6B6F71"/>
				</linearGradient>
				<polygon class="st17" points="42.5,72.1 34.3,67.4 34.3,66.7 42.5,71.5 				"/>
				<linearGradient id="SVGID_12_" gradientUnits="userSpaceOnUse" x1="38.5425" y1="70.2401" x2="38.2636" y2="70.7233">
					<stop  offset="0" style="stop-color:#505557"/>
					<stop  offset="1" style="stop-color:#6B6F71"/>
				</linearGradient>
				<polygon class="st18" points="42.5,73.2 34.3,68.4 34.3,67.8 42.5,72.5 				"/>
				<linearGradient id="SVGID_13_" gradientUnits="userSpaceOnUse" x1="38.5425" y1="71.2838" x2="38.2636" y2="71.767">
					<stop  offset="0" style="stop-color:#505557"/>
					<stop  offset="1" style="stop-color:#6B6F71"/>
				</linearGradient>
				<polygon class="st19" points="42.5,74.2 34.3,69.5 34.3,68.8 42.5,73.6 				"/>
				<linearGradient id="SVGID_14_" gradientUnits="userSpaceOnUse" x1="38.5425" y1="72.3275" x2="38.2635" y2="72.8107">
					<stop  offset="0" style="stop-color:#505557"/>
					<stop  offset="1" style="stop-color:#6B6F71"/>
				</linearGradient>
				<polygon class="st20" points="42.5,75.3 34.3,70.5 34.3,69.9 42.5,74.6 				"/>
				<linearGradient id="SVGID_15_" gradientUnits="userSpaceOnUse" x1="38.5425" y1="73.3712" x2="38.2635" y2="73.8545">
					<stop  offset="0" style="stop-color:#505557"/>
					<stop  offset="1" style="stop-color:#6B6F71"/>
				</linearGradient>
				<polygon class="st21" points="42.5,76.3 34.3,71.6 34.3,70.9 42.5,75.7 				"/>
				<linearGradient id="SVGID_16_" gradientUnits="userSpaceOnUse" x1="38.5425" y1="74.4149" x2="38.2635" y2="74.8982">
					<stop  offset="0" style="stop-color:#505557"/>
					<stop  offset="1" style="stop-color:#6B6F71"/>
				</linearGradient>
				<polygon class="st22" points="42.5,77.4 34.3,72.6 34.3,72 42.5,76.7 				"/>
			</g>
		</g>
	</g>
	<g>
		<g>
			<polygon class="st0" points="72.5,77.1 66.4,73.5 66.4,56.6 72.5,60.2 			"/>
			<polygon class="st1" points="72.5,60.2 66.4,56.6 72,53.4 78.1,57 			"/>
			<polygon class="st3" points="78.1,57 78,73.9 72.5,77.1 72.5,60.2 			"/>
		</g>
		<g>
			<polygon class="st0" points="64.9,81.4 58.9,77.9 58.9,61 65,64.5 			"/>
			<polygon class="st1" points="65,64.5 58.9,61 64.4,57.8 70.5,61.3 			"/>
			<polygon class="st3" points="70.5,61.3 70.5,78.2 64.9,81.4 65,64.5 			"/>
		</g>
		<g>
			<polygon class="st0" points="57.4,85.8 51.3,82.2 51.3,65.3 57.4,68.9 			"/>
			<polygon class="st1" points="57.4,68.9 51.3,65.3 56.9,62.1 62.9,65.7 			"/>
			<polygon class="st3" points="62.9,65.7 62.9,82.6 57.4,85.8 57.4,68.9 			"/>
		</g>
	</g>
	<g>
		<g id="Axonometric_Cube_1_">
			<polygon id="Cube_face_-_left_88_" class="st2" points="55.5,41.9 52.3,40.1 52.3,42.1 55.5,43.9 			"/>
			<polygon id="Cube_face_-_right_88_" class="st23" points="65.4,38.2 55.5,43.9 55.5,41.9 65.4,36.2 			"/>
			<polygon id="Cube_face_-_top_88_" class="st24" points="55.5,41.9 52.3,40.1 62.3,34.4 65.4,36.2 			"/>
		</g>
		<g>
			<path class="st25" d="M63.7,35.1c-0.8-0.5-2.1-0.5-2.9,0c-0.8,0.4-0.8,1.2,0,1.7c0.8,0.5,2.1,0.5,2.9,0
				C64.5,36.3,64.5,35.6,63.7,35.1z M62.9,36.3c-0.4,0.2-1,0.2-1.4,0s-0.4-0.6,0-0.8c0.4-0.2,1-0.2,1.4,0
				C63.3,35.7,63.3,36.1,62.9,36.3z"/>
			<path class="st26" d="M63.7,35.1L63.7,35.1c-1.1-0.7-3.2-0.4-3.6,0.7c-0.4,1.5,2,2.2,3.5,1.4c0,0,0,0,0,0
				c0.2-0.1,0.7-0.4,0.7-1.1C64.4,35.5,63.9,35.2,63.7,35.1z M63.7,36.7c-0.8,0.4-2.1,0.4-2.9,0c-0.8-0.5-0.8-1.2,0-1.7
				c0.8-0.4,2.1-0.4,2.9,0C64.5,35.6,64.5,36.3,63.7,36.7z"/>
			<path class="st25" d="M63.7,34.1c-0.8-0.5-2.1-0.5-2.9,0c-0.8,0.4-0.8,1.2,0,1.7c0.8,0.5,2.1,0.5,2.9,0
				C64.5,35.3,64.5,34.6,63.7,34.1z M62.9,35.3c-0.4,0.2-1,0.2-1.4,0c-0.4-0.2-0.4-0.6,0-0.8c0.4-0.2,1-0.2,1.4,0
				C63.3,34.7,63.3,35.1,62.9,35.3z"/>
			<path class="st26" d="M63.7,34.1L63.7,34.1c-1.1-0.7-3.2-0.4-3.6,0.7c-0.4,1.5,2,2.2,3.5,1.4c0,0,0,0,0,0c0,0,0,0,0,0
				c0.2-0.1,0.7-0.4,0.7-1.1C64.4,34.5,63.9,34.2,63.7,34.1z M63.7,35.7c-0.8,0.4-2.1,0.4-2.9,0c-0.8-0.5-0.8-1.2,0-1.7
				c0.8-0.4,2.1-0.4,2.9,0C64.5,34.6,64.5,35.3,63.7,35.7z"/>
			<path class="st25" d="M63.7,33.1c-0.8-0.5-2.1-0.5-2.9,0c-0.8,0.4-0.8,1.2,0,1.7c0.8,0.5,2.1,0.5,2.9,0
				C64.5,34.3,64.5,33.5,63.7,33.1z M62.9,34.3c-0.4,0.2-1,0.2-1.4,0c-0.4-0.2-0.4-0.6,0-0.8c0.4-0.2,1-0.2,1.4,0
				C63.3,33.7,63.3,34.1,62.9,34.3z"/>
			<path class="st26" d="M63.7,33.1c-1.1-0.7-3.2-0.4-3.6,0.7c-0.4,1.5,2,2.2,3.5,1.4c0,0,0,0,0,0c0,0,0,0,0,0
				c0.2-0.1,0.7-0.4,0.7-1.1C64.4,33.5,63.9,33.2,63.7,33.1z M63.7,34.7c-0.8,0.4-2.1,0.4-2.9,0c-0.8-0.5-0.8-1.2,0-1.7
				c0.8-0.4,2.1-0.4,2.9,0C64.5,33.5,64.5,34.3,63.7,34.7z"/>
			<path class="st25" d="M63.7,32.1c-0.8-0.5-2.1-0.5-2.9,0c-0.8,0.4-0.8,1.2,0,1.7c0.8,0.5,2.1,0.5,2.9,0
				C64.5,33.3,64.5,32.5,63.7,32.1z M62.9,33.3c-0.4,0.2-1,0.2-1.4,0c-0.4-0.2-0.4-0.6,0-0.8c0.4-0.2,1-0.2,1.4,0
				C63.3,32.7,63.3,33.1,62.9,33.3z"/>
			<path class="st26" d="M63.7,32.1c-1.1-0.7-3.2-0.4-3.6,0.7c-0.4,1.5,2,2.2,3.5,1.4c0,0,0,0,0,0l0,0c0.2-0.1,0.7-0.4,0.7-1.1
				C64.4,32.5,63.9,32.2,63.7,32.1z M63.7,33.7c-0.8,0.4-2.1,0.4-2.9,0c-0.8-0.5-0.8-1.2,0-1.7c0.8-0.4,2.1-0.4,2.9,0
				C64.5,32.5,64.5,33.3,63.7,33.7z"/>
			<path class="st25" d="M63.7,31.1c-0.8-0.5-2.1-0.5-2.9,0c-0.8,0.4-0.8,1.2,0,1.7c0.8,0.5,2.1,0.5,2.9,0
				C64.5,32.3,64.5,31.5,63.7,31.1z M62.9,32.3c-0.4,0.2-1,0.2-1.4,0c-0.4-0.2-0.4-0.6,0-0.8c0.4-0.2,1-0.2,1.4,0
				S63.3,32.1,62.9,32.3z"/>
			<path class="st26" d="M63.7,31.1c-1.1-0.7-3.2-0.4-3.6,0.7c-0.4,1.5,2,2.2,3.5,1.4c0,0,0,0,0,0c0,0,0,0,0,0
				c0.2-0.1,0.7-0.4,0.7-1.1C64.4,31.5,63.9,31.2,63.7,31.1z M63.7,32.7c-0.8,0.4-2.1,0.4-2.9,0c-0.8-0.5-0.8-1.2,0-1.7
				c0.8-0.4,2.1-0.4,2.9,0C64.5,31.5,64.5,32.3,63.7,32.7z"/>
			<path class="st25" d="M63.7,30.1c-0.8-0.5-2.1-0.5-2.9,0s-0.8,1.2,0,1.7c0.8,0.5,2.1,0.5,2.9,0C64.5,31.3,64.5,30.5,63.7,30.1z
				 M62.9,31.3c-0.4,0.2-1,0.2-1.4,0c-0.4-0.2-0.4-0.6,0-0.8c0.4-0.2,1-0.2,1.4,0C63.3,30.7,63.3,31.1,62.9,31.3z"/>
			<path class="st26" d="M63.7,30.1c-1.1-0.7-3.2-0.4-3.6,0.7c-0.4,1.5,2,2.2,3.5,1.4c0,0,0,0,0,0c0,0,0,0,0,0
				c0.2-0.1,0.7-0.4,0.7-1.1C64.4,30.5,63.9,30.2,63.7,30.1z M63.7,31.7c-0.8,0.4-2.1,0.4-2.9,0c-0.8-0.5-0.8-1.2,0-1.7
				s2.1-0.4,2.9,0C64.5,30.5,64.5,31.3,63.7,31.7z"/>
			<g>
				<path class="st25" d="M63.7,30.7c-0.8,0.4-2.1,0.4-2.9,0c-0.8-0.5-0.8-1.2,0-1.7c0.8-0.4,2.1-0.4,2.9,0
					C64.5,29.5,64.5,30.3,63.7,30.7z M63,30.3c0.4-0.2,0.4-0.6,0-0.8c-0.4-0.2-1-0.2-1.4,0c-0.4,0.2-0.4,0.6,0,0.8
					C61.9,30.5,62.6,30.5,63,30.3L63,30.3z"/>
			</g>
			<path class="st26" d="M63.7,29.1c-1.1-0.7-3.2-0.4-3.6,0.7c-0.4,1.5,2,2.2,3.5,1.4c0,0,0,0,0,0c0,0,0,0,0,0
				c0.2-0.1,0.7-0.4,0.7-1.1C64.4,29.5,63.9,29.2,63.7,29.1z M63.7,30.7c-0.8,0.4-2.1,0.4-2.9,0c-0.8-0.5-0.8-1.2,0-1.7
				c0.8-0.4,2.1-0.4,2.9,0C64.5,29.5,64.5,30.3,63.7,30.7z"/>
			<path class="st25" d="M63.7,28.1c-0.8-0.5-2.1-0.5-2.9,0c-0.8,0.4-0.8,1.2,0,1.7c0.8,0.5,2.1,0.5,2.9,0
				C64.5,29.3,64.5,28.5,63.7,28.1z M63,29.3c-0.4,0.2-1,0.2-1.4,0c-0.4-0.2-0.4-0.6,0-0.8c0.4-0.2,1-0.2,1.4,0
				C63.3,28.7,63.3,29.1,63,29.3z"/>
			<path class="st26" d="M63.7,28.1c-1.1-0.7-3.2-0.4-3.6,0.7c-0.4,1.5,2,2.2,3.5,1.4c0,0,0,0,0,0l0,0c0.2-0.1,0.7-0.4,0.7-1.1
				C64.4,28.5,63.9,28.2,63.7,28.1z M63.7,29.7c-0.8,0.4-2.1,0.4-2.9,0c-0.8-0.5-0.8-1.2,0-1.7c0.8-0.4,2.1-0.4,2.9,0
				C64.5,28.5,64.5,29.3,63.7,29.7z"/>
			<path class="st25" d="M63.7,27.1c-0.8-0.5-2.1-0.5-2.9,0c-0.8,0.4-0.8,1.2,0,1.7c0.8,0.5,2.1,0.5,2.9,0
				C64.5,28.3,64.5,27.5,63.7,27.1z M63,28.3c-0.4,0.2-1,0.2-1.4,0c-0.4-0.2-0.4-0.6,0-0.8c0.4-0.2,1-0.2,1.4,0
				C63.4,27.7,63.3,28.1,63,28.3z"/>
			<path class="st26" d="M63.8,27.1c-1.1-0.7-3.2-0.4-3.6,0.7c-0.4,1.5,2,2.2,3.5,1.4c0,0,0,0,0,0c0.2-0.1,0.7-0.4,0.7-1.1
				C64.4,27.5,63.9,27.2,63.8,27.1z M63.7,28.7c-0.8,0.4-2.1,0.4-2.9,0c-0.8-0.5-0.8-1.2,0-1.7c0.8-0.4,2.1-0.4,2.9,0
				C64.5,27.5,64.5,28.3,63.7,28.7z"/>
			<path class="st25" d="M63.7,26.1c-0.8-0.5-2.1-0.5-2.9,0c-0.8,0.4-0.8,1.2,0,1.7c0.8,0.5,2.1,0.5,2.9,0
				C64.5,27.3,64.5,26.5,63.7,26.1z M63,27.3c-0.4,0.2-1,0.2-1.4,0c-0.4-0.2-0.4-0.6,0-0.8c0.4-0.2,1-0.2,1.4,0
				C63.4,26.7,63.3,27.1,63,27.3z"/>
			<path class="st26" d="M63.8,26.1c-1.1-0.7-3.2-0.4-3.6,0.7c-0.4,1.5,2,2.2,3.5,1.4c0,0,0,0,0,0c0,0,0,0,0,0
				c0.2-0.1,0.7-0.4,0.7-1.1C64.4,26.5,63.9,26.2,63.8,26.1z M63.7,27.7c-0.8,0.4-2.1,0.4-2.9,0c-0.8-0.5-0.8-1.2,0-1.7
				c0.8-0.4,2.1-0.4,2.9,0C64.5,26.5,64.5,27.3,63.7,27.7z"/>
			<path class="st25" d="M63.7,25.1c-0.8-0.5-2.1-0.5-2.9,0c-0.8,0.4-0.8,1.2,0,1.7c0.8,0.5,2.1,0.5,2.9,0
				C64.5,26.3,64.5,25.5,63.7,25.1z M63,26.3c-0.4,0.2-1,0.2-1.4,0c-0.4-0.2-0.4-0.6,0-0.8c0.4-0.2,1-0.2,1.4,0
				C63.4,25.7,63.3,26.1,63,26.3z"/>
			<path class="st26" d="M63.8,25.1c-1.1-0.7-3.2-0.4-3.6,0.7c-0.4,1.5,2,2.2,3.5,1.4c0,0,0,0,0,0c0.2-0.1,0.7-0.4,0.7-1.1
				C64.4,25.5,63.9,25.2,63.8,25.1z M63.7,26.7c-0.8,0.4-2.1,0.4-2.9,0c-0.8-0.5-0.8-1.2,0-1.7c0.8-0.4,2.1-0.4,2.9,0
				C64.5,25.5,64.5,26.3,63.7,26.7z"/>
			<path class="st25" d="M63.7,24.1c-0.8-0.5-2.1-0.5-2.9,0c-0.8,0.4-0.8,1.2,0,1.7c0.8,0.5,2.1,0.5,2.9,0
				C64.5,25.3,64.5,24.5,63.7,24.1z M63,25.3c-0.4,0.2-1,0.2-1.4,0c-0.4-0.2-0.4-0.6,0-0.8c0.4-0.2,1-0.2,1.4,0
				C63.4,24.7,63.4,25.1,63,25.3z"/>
			<path class="st26" d="M63.8,24.1c-1.1-0.7-3.2-0.4-3.6,0.7c-0.4,1.5,2,2.2,3.5,1.4c0.1,0,0.1,0,0,0c0.2-0.1,0.7-0.4,0.7-1.1
				C64.4,24.5,63.9,24.2,63.8,24.1z M63.7,25.7L63.7,25.7c-0.8,0.4-2.1,0.4-2.9,0c-0.8-0.5-0.8-1.2,0-1.7c0.8-0.4,2.1-0.4,2.9,0
				C64.5,24.5,64.5,25.3,63.7,25.7z"/>
			<path class="st26" d="M63,23.1c-0.4-0.2-1-0.2-1.4,0c-0.4,0.2-0.4,0.6,0,0.8c0.4,0.2,1,0.2,1.4,0C63.4,23.7,63.4,23.3,63,23.1z"
				/>
			<path class="st27" d="M63.8,23c-0.8-0.5-2.1-0.5-2.9,0c-0.8,0.5-0.8,1.2,0,1.7c0.5,0.3,1.3,0.4,2,0.3c0.2,0,0.4-0.1,0.6-0.2
				c0.1,0,0.2-0.1,0.3-0.1C64.5,24.3,64.5,23.5,63.8,23z M63,23.9L63,23.9c0,0-0.1,0-0.1,0.1c-0.1,0-0.2,0.1-0.3,0.1
				c-0.3,0.1-0.7,0-1-0.2c-0.4-0.2-0.4-0.6,0-0.8c0.4-0.2,1-0.2,1.4,0C63.4,23.3,63.4,23.7,63,23.9z"/>
			<path class="st26" d="M63.8,23L63.8,23c-1.1-0.7-3.2-0.4-3.6,0.7c-0.1,0.2-0.3,1.1,0.9,1.6c0.6,0.3,1.7,0.4,2.7-0.1c0,0,0,0,0,0
				l0,0c0.2-0.1,0.7-0.4,0.7-1.1C64.4,23.5,64.1,23.2,63.8,23z M63.7,24.7c-0.8,0.5-2.1,0.4-2.9,0c-0.8-0.5-0.8-1.2,0-1.7
				c0.8-0.5,2.1-0.4,2.9,0C64.5,23.5,64.5,24.3,63.7,24.7z"/>
			<path class="st28" d="M62.8,24c-0.1,0-0.2,0.1-0.3,0.1l0.3,1c0.2,0,0.4-0.1,0.6-0.2L62.8,24z"/>
		</g>
		<g>
			<path class="st25" d="M57.4,38.7c-0.8-0.5-2.1-0.5-2.9,0c-0.8,0.4-0.8,1.2,0,1.7c0.8,0.5,2.1,0.5,2.9,0
				C58.2,39.9,58.2,39.2,57.4,38.7z M56.6,39.9c-0.4,0.2-1,0.2-1.4,0c-0.4-0.2-0.4-0.6,0-0.8c0.4-0.2,1-0.2,1.4,0
				C57,39.4,57,39.7,56.6,39.9z"/>
			<path class="st26" d="M57.4,38.7L57.4,38.7c-1.1-0.7-3.2-0.4-3.6,0.7c-0.4,1.5,2,2.2,3.5,1.4c0,0,0,0,0,0
				c0.2-0.1,0.7-0.4,0.7-1.1C58.1,39.1,57.6,38.8,57.4,38.7z M57.4,40.4c-0.8,0.4-2.1,0.4-2.9,0c-0.8-0.5-0.8-1.2,0-1.7
				c0.8-0.4,2.1-0.4,2.9,0C58.2,39.2,58.2,39.9,57.4,40.4z"/>
			<path class="st25" d="M57.4,37.7c-0.8-0.5-2.1-0.5-2.9,0c-0.8,0.4-0.8,1.2,0,1.7c0.8,0.5,2.1,0.5,2.9,0
				C58.2,38.9,58.2,38.2,57.4,37.7z M56.6,38.9c-0.4,0.2-1,0.2-1.4,0c-0.4-0.2-0.4-0.6,0-0.8c0.4-0.2,1-0.2,1.4,0
				C57,38.4,57,38.7,56.6,38.9z"/>
			<path class="st26" d="M57.4,37.7L57.4,37.7c-1.1-0.7-3.2-0.4-3.6,0.7c-0.4,1.5,2,2.2,3.5,1.4c0,0,0,0,0,0c0,0,0,0,0,0
				c0.2-0.1,0.7-0.4,0.7-1.1C58.1,38.1,57.6,37.8,57.4,37.7z M57.4,39.4c-0.8,0.4-2.1,0.4-2.9,0c-0.8-0.5-0.8-1.2,0-1.7
				c0.8-0.4,2.1-0.4,2.9,0C58.2,38.2,58.2,38.9,57.4,39.4z"/>
			<path class="st25" d="M57.4,36.7c-0.8-0.5-2.1-0.5-2.9,0c-0.8,0.4-0.8,1.2,0,1.7c0.8,0.5,2.1,0.5,2.9,0
				C58.2,37.9,58.2,37.2,57.4,36.7z M56.6,37.9c-0.4,0.2-1,0.2-1.4,0c-0.4-0.2-0.4-0.6,0-0.8c0.4-0.2,1-0.2,1.4,0
				C57,37.4,57,37.7,56.6,37.9z"/>
			<path class="st26" d="M57.4,36.7c-1.1-0.7-3.2-0.4-3.6,0.7c-0.4,1.5,2,2.2,3.5,1.4c0,0,0,0,0,0c0,0,0,0,0,0
				c0.2-0.1,0.7-0.4,0.7-1.1C58.1,37.1,57.6,36.8,57.4,36.7z M57.4,38.4c-0.8,0.4-2.1,0.4-2.9,0c-0.8-0.5-0.8-1.2,0-1.7
				c0.8-0.4,2.1-0.4,2.9,0C58.2,37.2,58.2,37.9,57.4,38.4z"/>
			<path class="st25" d="M57.4,35.7c-0.8-0.5-2.1-0.5-2.9,0c-0.8,0.4-0.8,1.2,0,1.7c0.8,0.5,2.1,0.5,2.9,0
				C58.2,36.9,58.2,36.2,57.4,35.7z M56.6,36.9c-0.4,0.2-1,0.2-1.4,0c-0.4-0.2-0.4-0.6,0-0.8c0.4-0.2,1-0.2,1.4,0
				C57,36.4,57,36.7,56.6,36.9z"/>
			<path class="st26" d="M57.4,35.7c-1.1-0.7-3.2-0.4-3.6,0.7c-0.4,1.5,2,2.2,3.5,1.4c0,0,0,0,0,0c0,0,0,0,0,0
				c0.2-0.1,0.7-0.4,0.7-1.1C58.1,36.1,57.6,35.8,57.4,35.7z M57.4,37.4c-0.8,0.4-2.1,0.4-2.9,0c-0.8-0.5-0.8-1.2,0-1.7
				c0.8-0.4,2.1-0.4,2.9,0C58.2,36.2,58.2,36.9,57.4,37.4z"/>
			<path class="st25" d="M57.4,34.7c-0.8-0.5-2.1-0.5-2.9,0c-0.8,0.4-0.8,1.2,0,1.7c0.8,0.5,2.1,0.5,2.9,0
				C58.2,35.9,58.2,35.2,57.4,34.7z M56.6,35.9c-0.4,0.2-1,0.2-1.4,0c-0.4-0.2-0.4-0.6,0-0.8s1-0.2,1.4,0C57,35.4,57,35.7,56.6,35.9
				z"/>
			<path class="st26" d="M57.4,34.7c-1.1-0.7-3.2-0.4-3.6,0.7c-0.4,1.5,2,2.2,3.5,1.4c0,0,0,0,0,0c0,0,0,0,0,0
				c0.2-0.1,0.7-0.4,0.7-1.1C58.1,35.1,57.6,34.8,57.4,34.7z M57.4,36.4c-0.8,0.4-2.1,0.4-2.9,0c-0.8-0.5-0.8-1.2,0-1.7
				c0.8-0.4,2.1-0.4,2.9,0C58.2,35.2,58.2,35.9,57.4,36.4z"/>
			<path class="st25" d="M57.4,33.7c-0.8-0.5-2.1-0.5-2.9,0c-0.8,0.4-0.8,1.2,0,1.7c0.8,0.5,2.1,0.5,2.9,0
				C58.2,34.9,58.2,34.2,57.4,33.7z M56.6,34.9c-0.4,0.2-1,0.2-1.4,0c-0.4-0.2-0.4-0.6,0-0.8c0.4-0.2,1-0.2,1.4,0
				C57,34.4,57,34.7,56.6,34.9z"/>
			<path class="st26" d="M57.4,33.7c-1.1-0.7-3.2-0.4-3.6,0.7c-0.4,1.5,2,2.2,3.5,1.4c0,0,0,0,0,0l0,0c0.2-0.1,0.7-0.4,0.7-1.1
				C58.1,34.1,57.6,33.8,57.4,33.7z M57.4,35.4c-0.8,0.4-2.1,0.4-2.9,0c-0.8-0.5-0.8-1.2,0-1.7c0.8-0.4,2.1-0.4,2.9,0
				C58.2,34.2,58.2,34.9,57.4,35.4z"/>
			<g>
				<path class="st25" d="M57.4,34.4c-0.8,0.4-2.1,0.4-2.9,0c-0.8-0.5-0.8-1.2,0-1.7c0.8-0.4,2.1-0.4,2.9,0
					C58.2,33.2,58.2,33.9,57.4,34.4z M56.6,33.9c0.4-0.2,0.4-0.6,0-0.8c-0.4-0.2-1-0.2-1.4,0c-0.4,0.2-0.4,0.6,0,0.8
					C55.6,34.1,56.3,34.1,56.6,33.9L56.6,33.9z"/>
			</g>
			<path class="st26" d="M57.4,32.7c-1.1-0.7-3.2-0.4-3.6,0.7c-0.4,1.5,2,2.2,3.5,1.4c0,0,0,0,0,0c0,0,0,0,0,0
				c0.2-0.1,0.7-0.4,0.7-1.1C58.1,33.1,57.6,32.8,57.4,32.7z M57.4,34.4c-0.8,0.4-2.1,0.4-2.9,0c-0.8-0.5-0.8-1.2,0-1.7
				c0.8-0.4,2.1-0.4,2.9,0C58.2,33.2,58.2,33.9,57.4,34.4z"/>
			<path class="st25" d="M57.4,31.7c-0.8-0.5-2.1-0.5-2.9,0c-0.8,0.4-0.8,1.2,0,1.7c0.8,0.5,2.1,0.5,2.9,0
				C58.2,32.9,58.2,32.2,57.4,31.7z M56.7,32.9c-0.4,0.2-1,0.2-1.4,0c-0.4-0.2-0.4-0.6,0-0.8c0.4-0.2,1-0.2,1.4,0
				C57,32.4,57,32.7,56.7,32.9z"/>
			<path class="st26" d="M57.4,31.7c-1.1-0.7-3.2-0.4-3.6,0.7c-0.4,1.5,2,2.2,3.5,1.4c0,0,0,0,0,0c0,0,0,0,0,0
				c0.2-0.1,0.7-0.4,0.7-1.1C58.1,32.1,57.6,31.8,57.4,31.7z M57.4,33.4c-0.8,0.4-2.1,0.4-2.9,0c-0.8-0.5-0.8-1.2,0-1.7
				c0.8-0.4,2.1-0.4,2.9,0C58.2,32.2,58.2,32.9,57.4,33.4z"/>
			<path class="st25" d="M57.4,30.7c-0.8-0.5-2.1-0.5-2.9,0c-0.8,0.4-0.8,1.2,0,1.7c0.8,0.5,2.1,0.5,2.9,0
				C58.2,31.9,58.2,31.2,57.4,30.7z M56.7,31.9c-0.4,0.2-1,0.2-1.4,0c-0.4-0.2-0.4-0.6,0-0.8c0.4-0.2,1-0.2,1.4,0
				C57,31.3,57,31.7,56.7,31.9z"/>
			<path class="st26" d="M57.4,30.7c-1.1-0.7-3.2-0.4-3.6,0.7c-0.4,1.5,2,2.2,3.5,1.4c0,0,0,0,0,0c0.2-0.1,0.7-0.4,0.7-1.1
				C58.1,31.1,57.6,30.8,57.4,30.7z M57.4,32.4c-0.8,0.4-2.1,0.4-2.9,0c-0.8-0.5-0.8-1.2,0-1.7c0.8-0.4,2.1-0.4,2.9,0
				C58.2,31.2,58.2,31.9,57.4,32.4z"/>
			<path class="st25" d="M57.4,29.7c-0.8-0.5-2.1-0.5-2.9,0c-0.8,0.4-0.8,1.2,0,1.7c0.8,0.5,2.1,0.5,2.9,0
				C58.2,30.9,58.2,30.2,57.4,29.7z M56.7,30.9c-0.4,0.2-1,0.2-1.4,0c-0.4-0.2-0.4-0.6,0-0.8c0.4-0.2,1-0.2,1.4,0
				C57.1,30.3,57,30.7,56.7,30.9z"/>
			<path class="st26" d="M57.5,29.7c-1.1-0.7-3.2-0.4-3.6,0.7c-0.4,1.5,2,2.2,3.5,1.4c0,0,0,0,0,0c0,0,0,0,0,0
				c0.2-0.1,0.7-0.4,0.7-1.1C58.1,30.1,57.6,29.8,57.5,29.7z M57.4,31.4c-0.8,0.4-2.1,0.4-2.9,0c-0.8-0.5-0.8-1.2,0-1.7
				c0.8-0.4,2.1-0.4,2.9,0C58.2,30.2,58.2,30.9,57.4,31.4z"/>
			<path class="st25" d="M57.4,28.7c-0.8-0.5-2.1-0.5-2.9,0c-0.8,0.4-0.8,1.2,0,1.7c0.8,0.5,2.1,0.5,2.9,0
				C58.2,29.9,58.2,29.2,57.4,28.7z M56.7,29.9c-0.4,0.2-1,0.2-1.4,0c-0.4-0.2-0.4-0.6,0-0.8c0.4-0.2,1-0.2,1.4,0
				C57.1,29.3,57,29.7,56.7,29.9z"/>
			<path class="st26" d="M57.5,28.7c-1.1-0.7-3.2-0.4-3.6,0.7c-0.4,1.5,2,2.2,3.5,1.4c0,0,0,0,0,0c0.2-0.1,0.7-0.4,0.7-1.1
				C58.1,29.1,57.6,28.8,57.5,28.7z M57.4,30.4c-0.8,0.4-2.1,0.4-2.9,0c-0.8-0.5-0.8-1.2,0-1.7c0.8-0.4,2.1-0.4,2.9,0
				C58.2,29.2,58.2,29.9,57.4,30.4z"/>
			<path class="st25" d="M57.4,27.7c-0.8-0.5-2.1-0.5-2.9,0c-0.8,0.4-0.8,1.2,0,1.7c0.8,0.5,2.1,0.5,2.9,0
				C58.2,28.9,58.2,28.2,57.4,27.7z M56.7,28.9c-0.4,0.2-1,0.2-1.4,0c-0.4-0.2-0.4-0.6,0-0.8c0.4-0.2,1-0.2,1.4,0
				C57.1,28.3,57,28.7,56.7,28.9z"/>
			<path class="st26" d="M57.5,27.7c-1.1-0.7-3.2-0.4-3.6,0.7c-0.4,1.5,2,2.2,3.5,1.4c0.1,0,0.1,0,0,0c0.2-0.1,0.7-0.4,0.7-1.1
				C58.1,28.1,57.6,27.8,57.5,27.7z M57.4,29.3L57.4,29.3c-0.8,0.4-2.1,0.4-2.9,0c-0.8-0.5-0.8-1.2,0-1.7c0.8-0.4,2.1-0.4,2.9,0
				C58.2,28.2,58.2,28.9,57.4,29.3z"/>
			<path class="st26" d="M56.7,26.7c-0.4-0.2-1-0.2-1.4,0c-0.4,0.2-0.4,0.6,0,0.8c0.4,0.2,1,0.2,1.4,0C57.1,27.3,57.1,27,56.7,26.7z
				"/>
			<path class="st27" d="M57.5,26.7c-0.8-0.5-2.1-0.5-2.9,0c-0.8,0.5-0.8,1.2,0,1.7c0.5,0.3,1.3,0.4,2,0.3c0.2,0,0.4-0.1,0.6-0.2
				c0.1,0,0.2-0.1,0.3-0.1C58.2,27.9,58.2,27.1,57.5,26.7z M56.7,27.5L56.7,27.5c0,0-0.1,0-0.1,0.1c-0.1,0-0.2,0.1-0.3,0.1
				c-0.3,0.1-0.7,0-1-0.2c-0.4-0.2-0.4-0.6,0-0.8c0.4-0.2,1-0.2,1.4,0C57.1,27,57.1,27.3,56.7,27.5z"/>
			<path class="st26" d="M57.5,26.7L57.5,26.7c-1.1-0.7-3.2-0.4-3.6,0.7c-0.1,0.2-0.3,1.1,0.9,1.6c0.6,0.3,1.7,0.4,2.7-0.1
				c0,0,0,0,0,0l0,0c0.2-0.1,0.7-0.4,0.7-1.1C58.1,27.2,57.8,26.9,57.5,26.7z M57.4,28.3c-0.8,0.5-2.1,0.4-2.9,0
				c-0.8-0.5-0.8-1.2,0-1.7c0.8-0.5,2.1-0.4,2.9,0C58.2,27.1,58.2,27.9,57.4,28.3z"/>
			<path class="st28" d="M56.5,27.6c-0.1,0-0.2,0.1-0.3,0.1l0.3,1c0.2,0,0.4-0.1,0.6-0.2L56.5,27.6z"/>
		</g>
	</g>
	<g>
		<g id="Axonometric_Cube_3_">
			<polygon id="Cube_face_-_left_90_" class="st2" points="37.6,52.3 34.4,50.4 34.4,52.4 37.6,54.2 			"/>
			<polygon id="Cube_face_-_right_90_" class="st23" points="47.6,48.5 37.6,54.2 37.6,52.3 47.6,46.5 			"/>
			<polygon id="Cube_face_-_top_90_" class="st24" points="37.6,52.3 34.4,50.4 44.4,44.7 47.6,46.5 			"/>
		</g>
		<g>
			<path class="st25" d="M45.9,45.4c-0.8-0.5-2.1-0.5-2.9,0c-0.8,0.4-0.8,1.2,0,1.7c0.8,0.5,2.1,0.5,2.9,0
				C46.6,46.6,46.6,45.9,45.9,45.4z M45.1,46.6c-0.4,0.2-1,0.2-1.4,0c-0.4-0.2-0.4-0.6,0-0.8c0.4-0.2,1-0.2,1.4,0
				C45.5,46,45.5,46.4,45.1,46.6z"/>
			<path class="st26" d="M45.9,45.4L45.9,45.4c-1.1-0.7-3.2-0.4-3.6,0.7c-0.4,1.5,2,2.2,3.5,1.4c0,0,0,0,0,0
				c0.2-0.1,0.7-0.4,0.7-1.1C46.5,45.8,46,45.5,45.9,45.4z M45.8,47c-0.8,0.4-2.1,0.4-2.9,0c-0.8-0.5-0.8-1.2,0-1.7
				c0.8-0.4,2.1-0.4,2.9,0C46.6,45.9,46.6,46.6,45.8,47z"/>
			<path class="st25" d="M45.9,44.4c-0.8-0.5-2.1-0.5-2.9,0c-0.8,0.4-0.8,1.2,0,1.7c0.8,0.5,2.1,0.5,2.9,0
				C46.6,45.6,46.6,44.9,45.9,44.4z M45.1,45.6c-0.4,0.2-1,0.2-1.4,0c-0.4-0.2-0.4-0.6,0-0.8c0.4-0.2,1-0.2,1.4,0
				C45.5,45,45.5,45.4,45.1,45.6z"/>
			<path class="st26" d="M45.9,44.4L45.9,44.4c-1.1-0.7-3.2-0.4-3.6,0.7c-0.4,1.5,2,2.2,3.5,1.4c0,0,0,0,0,0c0,0,0,0,0,0
				c0.2-0.1,0.7-0.4,0.7-1.1C46.5,44.8,46,44.5,45.9,44.4z M45.8,46c-0.8,0.4-2.1,0.4-2.9,0c-0.8-0.5-0.8-1.2,0-1.7
				c0.8-0.4,2.1-0.4,2.9,0C46.6,44.9,46.6,45.6,45.8,46z"/>
			<path class="st25" d="M45.9,43.4c-0.8-0.5-2.1-0.5-2.9,0c-0.8,0.4-0.8,1.2,0,1.7c0.8,0.5,2.1,0.5,2.9,0
				C46.6,44.6,46.6,43.8,45.9,43.4z M45.1,44.6c-0.4,0.2-1,0.2-1.4,0c-0.4-0.2-0.4-0.6,0-0.8c0.4-0.2,1-0.2,1.4,0
				C45.5,44,45.5,44.4,45.1,44.6z"/>
			<path class="st26" d="M45.9,43.4c-1.1-0.7-3.2-0.4-3.6,0.7c-0.4,1.5,2,2.2,3.5,1.4c0,0,0,0,0,0c0,0,0,0,0,0
				c0.2-0.1,0.7-0.4,0.7-1.1C46.5,43.8,46,43.5,45.9,43.4z M45.8,45c-0.8,0.4-2.1,0.4-2.9,0c-0.8-0.5-0.8-1.2,0-1.7
				c0.8-0.4,2.1-0.4,2.9,0C46.6,43.8,46.6,44.6,45.8,45z"/>
			<path class="st25" d="M45.9,42.4c-0.8-0.5-2.1-0.5-2.9,0c-0.8,0.4-0.8,1.2,0,1.7c0.8,0.5,2.1,0.5,2.9,0
				C46.6,43.6,46.6,42.8,45.9,42.4z M45.1,43.6c-0.4,0.2-1,0.2-1.4,0c-0.4-0.2-0.4-0.6,0-0.8c0.4-0.2,1-0.2,1.4,0
				C45.5,43,45.5,43.4,45.1,43.6z"/>
			<path class="st26" d="M45.9,42.4c-1.1-0.7-3.2-0.4-3.6,0.7c-0.4,1.5,2,2.2,3.5,1.4c0,0,0,0,0,0c0,0,0,0,0,0
				c0.2-0.1,0.7-0.4,0.7-1.1C46.5,42.8,46.1,42.5,45.9,42.4z M45.8,44c-0.8,0.4-2.1,0.4-2.9,0c-0.8-0.5-0.8-1.2,0-1.7
				c0.8-0.4,2.1-0.4,2.9,0C46.6,42.8,46.6,43.6,45.8,44z"/>
			<path class="st25" d="M45.9,41.4c-0.8-0.5-2.1-0.5-2.9,0c-0.8,0.4-0.8,1.2,0,1.7c0.8,0.5,2.1,0.5,2.9,0
				C46.6,42.6,46.6,41.8,45.9,41.4z M45.1,42.6c-0.4,0.2-1,0.2-1.4,0c-0.4-0.2-0.4-0.6,0-0.8c0.4-0.2,1-0.2,1.4,0
				C45.5,42,45.5,42.4,45.1,42.6z"/>
			<path class="st26" d="M45.9,41.4c-1.1-0.7-3.2-0.4-3.6,0.7c-0.4,1.5,2,2.2,3.5,1.4c0,0,0,0,0,0c0,0,0,0,0,0
				c0.2-0.1,0.7-0.4,0.7-1.1C46.5,41.8,46.1,41.5,45.9,41.4z M45.8,43c-0.8,0.4-2.1,0.4-2.9,0c-0.8-0.5-0.8-1.2,0-1.7
				c0.8-0.4,2.1-0.4,2.9,0C46.6,41.8,46.6,42.6,45.8,43z"/>
			<path class="st25" d="M45.9,40.4c-0.8-0.5-2.1-0.5-2.9,0c-0.8,0.4-0.8,1.2,0,1.7c0.8,0.5,2.1,0.5,2.9,0
				C46.6,41.6,46.6,40.8,45.9,40.4z M45.1,41.6c-0.4,0.2-1,0.2-1.4,0c-0.4-0.2-0.4-0.6,0-0.8c0.4-0.2,1-0.2,1.4,0
				C45.5,41,45.5,41.4,45.1,41.6z"/>
			<path class="st26" d="M45.9,40.4c-1.1-0.7-3.2-0.4-3.6,0.7c-0.4,1.5,2,2.2,3.5,1.4c0,0,0,0,0,0l0,0c0.2-0.1,0.7-0.4,0.7-1.1
				C46.6,40.8,46.1,40.5,45.9,40.4z M45.8,42c-0.8,0.4-2.1,0.4-2.9,0c-0.8-0.5-0.8-1.2,0-1.7c0.8-0.4,2.1-0.4,2.9,0
				C46.6,40.8,46.6,41.6,45.8,42z"/>
			<g>
				<path class="st25" d="M45.8,41c-0.8,0.4-2.1,0.4-2.9,0c-0.8-0.5-0.8-1.2,0-1.7c0.8-0.4,2.1-0.4,2.9,0
					C46.6,39.8,46.6,40.6,45.8,41z M45.1,40.6c0.4-0.2,0.4-0.6,0-0.8c-0.4-0.2-1-0.2-1.4,0c-0.4,0.2-0.4,0.6,0,0.8
					C44.1,40.8,44.7,40.8,45.1,40.6L45.1,40.6z"/>
			</g>
			<path class="st26" d="M45.9,39.4c-1.1-0.7-3.2-0.4-3.6,0.7c-0.4,1.5,2,2.2,3.5,1.4c0,0,0,0,0,0c0,0,0,0,0,0
				c0.2-0.1,0.7-0.4,0.7-1.1C46.6,39.8,46.1,39.5,45.9,39.4z M45.8,41c-0.8,0.4-2.1,0.4-2.9,0c-0.8-0.5-0.8-1.2,0-1.7
				c0.8-0.4,2.1-0.4,2.9,0C46.6,39.8,46.6,40.6,45.8,41z"/>
			<path class="st25" d="M45.9,38.4c-0.8-0.5-2.1-0.5-2.9,0c-0.8,0.4-0.8,1.2,0,1.7c0.8,0.5,2.1,0.5,2.9,0
				C46.6,39.6,46.6,38.8,45.9,38.4z M45.1,39.6c-0.4,0.2-1,0.2-1.4,0c-0.4-0.2-0.4-0.6,0-0.8c0.4-0.2,1-0.2,1.4,0
				C45.5,39,45.5,39.4,45.1,39.6z"/>
			<path class="st26" d="M45.9,38.4c-1.1-0.7-3.2-0.4-3.6,0.7c-0.4,1.5,2,2.2,3.5,1.4c0,0,0,0,0,0c0,0,0,0,0,0
				c0.2-0.1,0.7-0.4,0.7-1.1C46.6,38.8,46.1,38.5,45.9,38.4z M45.8,40c-0.8,0.4-2.1,0.4-2.9,0c-0.8-0.5-0.8-1.2,0-1.7
				c0.8-0.4,2.1-0.4,2.9,0C46.6,38.8,46.6,39.6,45.8,40z"/>
			<path class="st25" d="M45.9,37.4c-0.8-0.5-2.1-0.5-2.9,0c-0.8,0.4-0.8,1.2,0,1.7c0.8,0.5,2.1,0.5,2.9,0
				C46.6,38.6,46.7,37.8,45.9,37.4z M45.1,38.6c-0.4,0.2-1,0.2-1.4,0c-0.4-0.2-0.4-0.6,0-0.8c0.4-0.2,1-0.2,1.4,0
				C45.5,38,45.5,38.4,45.1,38.6z"/>
			<path class="st26" d="M45.9,37.4c-1.1-0.7-3.2-0.4-3.6,0.7c-0.4,1.5,2,2.2,3.5,1.4c0,0,0,0,0,0c0.2-0.1,0.7-0.4,0.7-1.1
				C46.6,37.8,46.1,37.5,45.9,37.4z M45.8,39c-0.8,0.4-2.1,0.4-2.9,0c-0.8-0.5-0.8-1.2,0-1.7c0.8-0.4,2.1-0.4,2.9,0
				C46.7,37.8,46.6,38.6,45.8,39z"/>
			<path class="st25" d="M45.9,36.4c-0.8-0.5-2.1-0.5-2.9,0c-0.8,0.4-0.8,1.2,0,1.7c0.8,0.5,2.1,0.5,2.9,0
				C46.6,37.6,46.7,36.8,45.9,36.4z M45.1,37.6c-0.4,0.2-1,0.2-1.4,0c-0.4-0.2-0.4-0.6,0-0.8c0.4-0.2,1-0.2,1.4,0
				C45.5,37,45.5,37.4,45.1,37.6z"/>
			<path class="st26" d="M45.9,36.4c-1.1-0.7-3.2-0.4-3.6,0.7c-0.4,1.5,2,2.2,3.5,1.4c0,0,0,0,0,0c0,0,0,0,0,0
				c0.2-0.1,0.7-0.4,0.7-1.1C46.6,36.8,46.1,36.5,45.9,36.4z M45.8,38c-0.8,0.4-2.1,0.4-2.9,0c-0.8-0.5-0.8-1.2,0-1.7
				c0.8-0.4,2.1-0.4,2.9,0C46.7,36.8,46.6,37.6,45.8,38z"/>
			<path class="st25" d="M45.9,35.4c-0.8-0.5-2.1-0.5-2.9,0c-0.8,0.4-0.8,1.2,0,1.7c0.8,0.5,2.1,0.5,2.9,0
				C46.6,36.6,46.7,35.8,45.9,35.4z M45.1,36.6c-0.4,0.2-1,0.2-1.4,0c-0.4-0.2-0.4-0.6,0-0.8c0.4-0.2,1-0.2,1.4,0
				C45.5,36,45.5,36.4,45.1,36.6z"/>
			<path class="st26" d="M45.9,35.4c-1.1-0.7-3.2-0.4-3.6,0.7c-0.4,1.5,2,2.2,3.5,1.4c0,0,0,0,0,0c0.2-0.1,0.7-0.4,0.7-1.1
				C46.6,35.8,46.1,35.5,45.9,35.4z M45.8,37c-0.8,0.4-2.1,0.4-2.9,0c-0.8-0.5-0.8-1.2,0-1.7c0.8-0.4,2.1-0.4,2.9,0
				C46.7,35.8,46.6,36.6,45.8,37z"/>
			<path class="st25" d="M45.9,34.4c-0.8-0.5-2.1-0.5-2.9,0c-0.8,0.4-0.8,1.2,0,1.7c0.8,0.5,2.1,0.5,2.9,0
				C46.6,35.6,46.7,34.8,45.9,34.4z M45.1,35.6c-0.4,0.2-1,0.2-1.4,0c-0.4-0.2-0.4-0.6,0-0.8c0.4-0.2,1-0.2,1.4,0
				C45.5,35,45.5,35.4,45.1,35.6z"/>
			<path class="st26" d="M45.9,34.4c-1.1-0.7-3.2-0.4-3.6,0.7c-0.4,1.5,2,2.2,3.5,1.4c0.1,0,0.1,0,0,0c0.2-0.1,0.7-0.4,0.7-1.1
				C46.6,34.8,46.1,34.5,45.9,34.4z M45.8,36L45.8,36c-0.8,0.4-2.1,0.4-2.9,0c-0.8-0.5-0.8-1.2,0-1.7c0.8-0.4,2.1-0.4,2.9,0
				C46.7,34.8,46.6,35.6,45.8,36z"/>
			<path class="st26" d="M45.1,33.4c-0.4-0.2-1-0.2-1.4,0c-0.4,0.2-0.4,0.6,0,0.8c0.4,0.2,1,0.2,1.4,0C45.5,34,45.5,33.6,45.1,33.4z
				"/>
			<path class="st27" d="M45.9,33.3c-0.8-0.5-2.1-0.5-2.9,0c-0.8,0.5-0.8,1.2,0,1.7c0.5,0.3,1.3,0.4,2,0.3c0.2,0,0.4-0.1,0.6-0.2
				c0.1,0,0.2-0.1,0.3-0.1C46.7,34.6,46.7,33.8,45.9,33.3z M45.1,34.2L45.1,34.2c0,0-0.1,0-0.1,0.1c-0.1,0-0.2,0.1-0.3,0.1
				c-0.3,0.1-0.7,0-1-0.2c-0.4-0.2-0.4-0.6,0-0.8c0.4-0.2,1-0.2,1.4,0C45.5,33.6,45.5,34,45.1,34.2z"/>
			<path class="st26" d="M45.9,33.3L45.9,33.3c-1.1-0.7-3.2-0.4-3.6,0.7c-0.1,0.2-0.3,1.1,0.9,1.6c0.6,0.3,1.7,0.4,2.7-0.1
				c0,0,0,0,0,0l0,0c0.2-0.1,0.7-0.4,0.7-1.1C46.6,33.8,46.2,33.5,45.9,33.3z M45.9,35c-0.8,0.5-2.1,0.4-2.9,0
				c-0.8-0.5-0.8-1.2,0-1.7c0.8-0.5,2.1-0.4,2.9,0C46.7,33.8,46.7,34.6,45.9,35z"/>
			<path class="st28" d="M45,34.3c-0.1,0-0.2,0.1-0.3,0.1l0.3,1c0.2,0,0.4-0.1,0.6-0.2L45,34.3z"/>
		</g>
		<g>
			<path class="st25" d="M39.5,49c-0.8-0.5-2.1-0.5-2.9,0c-0.8,0.4-0.8,1.2,0,1.7c0.8,0.5,2.1,0.5,2.9,0
				C40.3,50.2,40.3,49.5,39.5,49z M38.8,50.2c-0.4,0.2-1,0.2-1.4,0c-0.4-0.2-0.4-0.6,0-0.8c0.4-0.2,1-0.2,1.4,0
				C39.2,49.7,39.2,50,38.8,50.2z"/>
			<path class="st26" d="M39.6,49L39.6,49c-1.1-0.7-3.2-0.4-3.6,0.7c-0.4,1.5,2,2.2,3.5,1.4c0,0,0,0,0,0c0.2-0.1,0.7-0.4,0.7-1.1
				C40.2,49.4,39.7,49.1,39.6,49z M39.5,50.7c-0.8,0.4-2.1,0.4-2.9,0c-0.8-0.5-0.8-1.2,0-1.7c0.8-0.4,2.1-0.4,2.9,0
				C40.3,49.5,40.3,50.2,39.5,50.7z"/>
			<path class="st25" d="M39.6,48c-0.8-0.5-2.1-0.5-2.9,0c-0.8,0.4-0.8,1.2,0,1.7c0.8,0.5,2.1,0.5,2.9,0
				C40.3,49.2,40.3,48.5,39.6,48z M38.8,49.2c-0.4,0.2-1,0.2-1.4,0c-0.4-0.2-0.4-0.6,0-0.8c0.4-0.2,1-0.2,1.4,0
				C39.2,48.7,39.2,49,38.8,49.2z"/>
			<path class="st26" d="M39.6,48L39.6,48c-1.1-0.7-3.2-0.4-3.6,0.7c-0.4,1.5,2,2.2,3.5,1.4c0,0,0,0,0,0c0,0,0,0,0,0
				c0.2-0.1,0.7-0.4,0.7-1.1C40.2,48.4,39.7,48.1,39.6,48z M39.5,49.7c-0.8,0.4-2.1,0.4-2.9,0c-0.8-0.5-0.8-1.2,0-1.7
				c0.8-0.4,2.1-0.4,2.9,0C40.3,48.5,40.3,49.2,39.5,49.7z"/>
			<path class="st25" d="M39.6,47c-0.8-0.5-2.1-0.5-2.9,0c-0.8,0.4-0.8,1.2,0,1.7c0.8,0.5,2.1,0.5,2.9,0
				C40.3,48.2,40.3,47.5,39.6,47z M38.8,48.2c-0.4,0.2-1,0.2-1.4,0c-0.4-0.2-0.4-0.6,0-0.8c0.4-0.2,1-0.2,1.4,0
				C39.2,47.7,39.2,48,38.8,48.2z"/>
			<path class="st26" d="M39.6,47c-1.1-0.7-3.2-0.4-3.6,0.7c-0.4,1.5,2,2.2,3.5,1.4c0,0,0,0,0,0c0,0,0,0,0,0
				c0.2-0.1,0.7-0.4,0.7-1.1C40.2,47.4,39.7,47.1,39.6,47z M39.5,48.7c-0.8,0.4-2.1,0.4-2.9,0c-0.8-0.5-0.8-1.2,0-1.7
				c0.8-0.4,2.1-0.4,2.9,0C40.3,47.5,40.3,48.2,39.5,48.7z"/>
			<path class="st25" d="M39.6,46c-0.8-0.5-2.1-0.5-2.9,0c-0.8,0.4-0.8,1.2,0,1.7c0.8,0.5,2.1,0.5,2.9,0
				C40.3,47.2,40.3,46.5,39.6,46z M38.8,47.2c-0.4,0.2-1,0.2-1.4,0c-0.4-0.2-0.4-0.6,0-0.8c0.4-0.2,1-0.2,1.4,0
				C39.2,46.7,39.2,47,38.8,47.2z"/>
			<path class="st26" d="M39.6,46c-1.1-0.7-3.2-0.4-3.6,0.7c-0.4,1.5,2,2.2,3.5,1.4c0,0,0,0,0,0l0,0c0.2-0.1,0.7-0.4,0.7-1.1
				C40.2,46.4,39.8,46.1,39.6,46z M39.5,47.7c-0.8,0.4-2.1,0.4-2.9,0c-0.8-0.5-0.8-1.2,0-1.7c0.8-0.4,2.1-0.4,2.9,0
				C40.3,46.5,40.3,47.2,39.5,47.7z"/>
			<path class="st25" d="M39.6,45c-0.8-0.5-2.1-0.5-2.9,0c-0.8,0.4-0.8,1.2,0,1.7c0.8,0.5,2.1,0.5,2.9,0
				C40.3,46.2,40.3,45.5,39.6,45z M38.8,46.2c-0.4,0.2-1,0.2-1.4,0c-0.4-0.2-0.4-0.6,0-0.8c0.4-0.2,1-0.2,1.4,0
				C39.2,45.7,39.2,46,38.8,46.2z"/>
			<path class="st26" d="M39.6,45c-1.1-0.7-3.2-0.4-3.6,0.7c-0.4,1.5,2,2.2,3.5,1.4c0,0,0,0,0,0c0,0,0,0,0,0
				c0.2-0.1,0.7-0.4,0.7-1.1C40.2,45.4,39.8,45.1,39.6,45z M39.5,46.7c-0.8,0.4-2.1,0.4-2.9,0c-0.8-0.5-0.8-1.2,0-1.7
				c0.8-0.4,2.1-0.4,2.9,0C40.3,45.5,40.3,46.2,39.5,46.7z"/>
			<path class="st25" d="M39.6,44c-0.8-0.5-2.1-0.5-2.9,0c-0.8,0.4-0.8,1.2,0,1.7c0.8,0.5,2.1,0.5,2.9,0
				C40.3,45.2,40.3,44.5,39.6,44z M38.8,45.2c-0.4,0.2-1,0.2-1.4,0c-0.4-0.2-0.4-0.6,0-0.8c0.4-0.2,1-0.2,1.4,0
				C39.2,44.7,39.2,45,38.8,45.2z"/>
			<path class="st26" d="M39.6,44c-1.1-0.7-3.2-0.4-3.6,0.7c-0.4,1.5,2,2.2,3.5,1.4c0,0,0,0,0,0c0,0,0,0,0,0
				c0.2-0.1,0.7-0.4,0.7-1.1C40.3,44.4,39.8,44.1,39.6,44z M39.5,45.7c-0.8,0.4-2.1,0.4-2.9,0c-0.8-0.5-0.8-1.2,0-1.7
				c0.8-0.4,2.1-0.4,2.9,0C40.3,44.5,40.3,45.2,39.5,45.7z"/>
			<g>
				<path class="st25" d="M39.5,44.7c-0.8,0.4-2.1,0.4-2.9,0c-0.8-0.5-0.8-1.2,0-1.7c0.8-0.4,2.1-0.4,2.9,0
					C40.3,43.5,40.3,44.2,39.5,44.7z M38.8,44.2c0.4-0.2,0.4-0.6,0-0.8c-0.4-0.2-1-0.2-1.4,0c-0.4,0.2-0.4,0.6,0,0.8
					C37.8,44.4,38.4,44.4,38.8,44.2L38.8,44.2z"/>
			</g>
			<path class="st26" d="M39.6,43c-1.1-0.7-3.2-0.4-3.6,0.7c-0.4,1.5,2,2.2,3.5,1.4c0,0,0,0,0,0c0,0,0,0,0,0
				c0.2-0.1,0.7-0.4,0.7-1.1C40.3,43.4,39.8,43.1,39.6,43z M39.5,44.7c-0.8,0.4-2.1,0.4-2.9,0c-0.8-0.5-0.8-1.2,0-1.7
				c0.8-0.4,2.1-0.4,2.9,0C40.3,43.5,40.3,44.2,39.5,44.7z"/>
			<path class="st25" d="M39.6,42c-0.8-0.5-2.1-0.5-2.9,0c-0.8,0.4-0.8,1.2,0,1.7c0.8,0.5,2.1,0.5,2.9,0
				C40.3,43.2,40.3,42.5,39.6,42z M38.8,43.2c-0.4,0.2-1,0.2-1.4,0c-0.4-0.2-0.4-0.6,0-0.8c0.4-0.2,1-0.2,1.4,0
				C39.2,42.7,39.2,43,38.8,43.2z"/>
			<path class="st26" d="M39.6,42c-1.1-0.7-3.2-0.4-3.6,0.7c-0.4,1.5,2,2.2,3.5,1.4c0,0,0,0,0,0l0,0c0.2-0.1,0.7-0.4,0.7-1.1
				C40.3,42.4,39.8,42.1,39.6,42z M39.5,43.7c-0.8,0.4-2.1,0.4-2.9,0c-0.8-0.5-0.8-1.2,0-1.7c0.8-0.4,2.1-0.4,2.9,0
				C40.3,42.5,40.3,43.2,39.5,43.7z"/>
			<path class="st25" d="M39.6,41c-0.8-0.5-2.1-0.5-2.9,0c-0.8,0.4-0.8,1.2,0,1.7c0.8,0.5,2.1,0.5,2.9,0
				C40.3,42.2,40.3,41.5,39.6,41z M38.8,42.2c-0.4,0.2-1,0.2-1.4,0c-0.4-0.2-0.4-0.6,0-0.8c0.4-0.2,1-0.2,1.4,0
				C39.2,41.7,39.2,42,38.8,42.2z"/>
			<path class="st26" d="M39.6,41c-1.1-0.7-3.2-0.4-3.6,0.7c-0.4,1.5,2,2.2,3.5,1.4c0,0,0,0,0,0c0.2-0.1,0.7-0.4,0.7-1.1
				C40.3,41.4,39.8,41.1,39.6,41z M39.5,42.7c-0.8,0.4-2.1,0.4-2.9,0c-0.8-0.5-0.8-1.2,0-1.7c0.8-0.4,2.1-0.4,2.9,0
				C40.3,41.5,40.3,42.2,39.5,42.7z"/>
			<path class="st25" d="M39.6,40c-0.8-0.5-2.1-0.5-2.9,0c-0.8,0.4-0.8,1.2,0,1.7c0.8,0.5,2.1,0.5,2.9,0
				C40.3,41.2,40.4,40.5,39.6,40z M38.8,41.2c-0.4,0.2-1,0.2-1.4,0c-0.4-0.2-0.4-0.6,0-0.8c0.4-0.2,1-0.2,1.4,0
				C39.2,40.6,39.2,41,38.8,41.2z"/>
			<path class="st26" d="M39.6,40c-1.1-0.7-3.2-0.4-3.6,0.7c-0.4,1.5,2,2.2,3.5,1.4c0,0,0,0,0,0c0,0,0,0,0,0
				c0.2-0.1,0.7-0.4,0.7-1.1C40.3,40.4,39.8,40.1,39.6,40z M39.5,41.7c-0.8,0.4-2.1,0.4-2.9,0c-0.8-0.5-0.8-1.2,0-1.7
				c0.8-0.4,2.1-0.4,2.9,0C40.4,40.5,40.3,41.2,39.5,41.7z"/>
			<path class="st25" d="M39.6,39c-0.8-0.5-2.1-0.5-2.9,0c-0.8,0.4-0.8,1.2,0,1.7c0.8,0.5,2.1,0.5,2.9,0
				C40.3,40.2,40.4,39.5,39.6,39z M38.8,40.2c-0.4,0.2-1,0.2-1.4,0c-0.4-0.2-0.4-0.6,0-0.8c0.4-0.2,1-0.2,1.4,0
				C39.2,39.6,39.2,40,38.8,40.2z"/>
			<path class="st26" d="M39.6,39c-1.1-0.7-3.2-0.4-3.6,0.7c-0.4,1.5,2,2.2,3.5,1.4c0,0,0,0,0,0c0.2-0.1,0.7-0.4,0.7-1.1
				C40.3,39.4,39.8,39.1,39.6,39z M39.5,40.7c-0.8,0.4-2.1,0.4-2.9,0c-0.8-0.5-0.8-1.2,0-1.7c0.8-0.4,2.1-0.4,2.9,0
				C40.4,39.5,40.3,40.2,39.5,40.7z"/>
			<path class="st25" d="M39.6,38c-0.8-0.5-2.1-0.5-2.9,0c-0.8,0.4-0.8,1.2,0,1.7c0.8,0.5,2.1,0.5,2.9,0
				C40.3,39.2,40.4,38.5,39.6,38z M38.8,39.2c-0.4,0.2-1,0.2-1.4,0c-0.4-0.2-0.4-0.6,0-0.8c0.4-0.2,1-0.2,1.4,0
				C39.2,38.6,39.2,39,38.8,39.2z"/>
			<path class="st26" d="M39.6,38c-1.1-0.7-3.2-0.4-3.6,0.7c-0.4,1.5,2,2.2,3.5,1.4c0.1,0,0.1,0,0,0c0.2-0.1,0.7-0.4,0.7-1.1
				C40.3,38.4,39.8,38.1,39.6,38z M39.5,39.7L39.5,39.7c-0.8,0.4-2.1,0.4-2.9,0c-0.8-0.5-0.8-1.2,0-1.7c0.8-0.4,2.1-0.4,2.9,0
				C40.4,38.5,40.3,39.2,39.5,39.7z"/>
			<path class="st26" d="M38.8,37c-0.4-0.2-1-0.2-1.4,0c-0.4,0.2-0.4,0.6,0,0.8c0.4,0.2,1,0.2,1.4,0C39.2,37.6,39.2,37.3,38.8,37z"
				/>
			<path class="st27" d="M39.6,37c-0.8-0.5-2.1-0.5-2.9,0c-0.8,0.5-0.8,1.2,0,1.7c0.5,0.3,1.3,0.4,2,0.3c0.2,0,0.4-0.1,0.6-0.2
				c0.1,0,0.2-0.1,0.3-0.1C40.4,38.2,40.4,37.4,39.6,37z M38.8,37.8L38.8,37.8c0,0-0.1,0-0.1,0.1c-0.1,0-0.2,0.1-0.3,0.1
				c-0.3,0.1-0.7,0-1-0.2c-0.4-0.2-0.4-0.6,0-0.8c0.4-0.2,1-0.2,1.4,0C39.2,37.3,39.2,37.6,38.8,37.8z"/>
			<path class="st26" d="M39.6,37L39.6,37c-1.1-0.7-3.2-0.4-3.6,0.7c-0.1,0.2-0.3,1.1,0.9,1.6c0.6,0.3,1.7,0.4,2.7-0.1c0,0,0,0,0,0
				c0,0,0,0,0,0c0.2-0.1,0.7-0.4,0.7-1.1C40.3,37.5,39.9,37.2,39.6,37z M39.6,38.7c-0.8,0.5-2.1,0.4-2.9,0c-0.8-0.5-0.8-1.2,0-1.7
				c0.8-0.5,2.1-0.4,2.9,0C40.4,37.4,40.4,38.2,39.6,38.7z"/>
			<path class="st28" d="M38.7,37.9c-0.1,0-0.2,0.1-0.3,0.1l0.3,1c0.2,0,0.4-0.1,0.6-0.2L38.7,37.9z"/>
		</g>
	</g>
	<g>
		<polygon class="st2" points="37.6,87.5 20.9,77.8 20.9,70.3 37.6,80 		"/>
		<polygon class="st24" points="37.6,80 20.9,70.3 24.3,68.4 41,78.1 		"/>
		<polygon class="st23" points="41,78.1 41,85.5 37.6,87.5 37.6,80 		"/>
	</g>
	<g>
		<g>
			<g>
				<path class="st29" d="M80.5,33.3c0,0-0.1,0-0.1,0L62.8,23.1v0.4c0,0.1-0.1,0.3-0.3,0.3c-0.1,0-0.3-0.1-0.3-0.3v-0.8
					c0-0.1,0-0.2,0.1-0.2c0.1,0,0.2,0,0.3,0l18,10.4c0.1,0.1,0.2,0.2,0.1,0.3C80.7,33.3,80.6,33.3,80.5,33.3z"/>
			</g>
			<g>
				<path class="st29" d="M62.1,23.5c-0.1,0-0.3-0.1-0.3-0.3v-0.7L44,12.3c-0.1-0.1-0.2-0.2-0.1-0.3c0.1-0.1,0.2-0.2,0.3-0.1
					l18,10.4c0.1,0,0.1,0.1,0.1,0.2v0.8C62.3,23.4,62.2,23.5,62.1,23.5z"/>
			</g>
			<g>
				<path class="st29" d="M74.1,37c0,0-0.1,0-0.1,0L56.4,26.8v0.4c0,0.1-0.1,0.3-0.3,0.3c-0.1,0-0.3-0.1-0.3-0.3v-0.8
					c0-0.1,0-0.2,0.1-0.2c0.1,0,0.2,0,0.3,0l18,10.4c0.1,0.1,0.2,0.2,0.1,0.3C74.3,37,74.2,37,74.1,37z"/>
			</g>
			<g>
				<path class="st29" d="M55.7,27.2c-0.1,0-0.3-0.1-0.3-0.3v-0.7L37.6,16c-0.1-0.1-0.2-0.2-0.1-0.3c0.1-0.1,0.2-0.2,0.3-0.1
					l18,10.4c0.1,0,0.1,0.1,0.1,0.2v0.8C56,27.1,55.8,27.2,55.7,27.2z"/>
			</g>
		</g>
		<g>
			<g>
				<path class="st29" d="M62.7,43.6c0,0-0.1,0-0.1,0L45,33.4v0.4c0,0.1-0.1,0.3-0.3,0.3c-0.1,0-0.3-0.1-0.3-0.3V33
					c0-0.1,0-0.2,0.1-0.2c0.1,0,0.2,0,0.3,0l18,10.4c0.1,0.1,0.2,0.2,0.1,0.3C62.9,43.5,62.8,43.6,62.7,43.6z"/>
			</g>
			<g>
				<path class="st29" d="M44.3,33.8c-0.1,0-0.3-0.1-0.3-0.3v-0.7L26.2,22.5c-0.1-0.1-0.2-0.2-0.1-0.3c0.1-0.1,0.2-0.2,0.3-0.1
					l18,10.4c0.1,0,0.1,0.1,0.1,0.2v0.8C44.6,33.6,44.5,33.8,44.3,33.8z"/>
			</g>
			<g>
				<path class="st29" d="M56.3,47.3c0,0-0.1,0-0.1,0L38.6,37.1v0.4c0,0.1-0.1,0.3-0.3,0.3s-0.3-0.1-0.3-0.3v-0.8
					c0-0.1,0-0.2,0.1-0.2c0.1,0,0.2,0,0.3,0l18,10.4c0.1,0.1,0.2,0.2,0.1,0.3C56.5,47.2,56.4,47.3,56.3,47.3z"/>
			</g>
			<g>
				<path class="st29" d="M37.9,37.4c-0.1,0-0.3-0.1-0.3-0.3v-0.7L19.8,26.2c-0.1-0.1-0.2-0.2-0.1-0.3c0.1-0.1,0.2-0.2,0.3-0.1
					l18,10.4c0.1,0,0.1,0.1,0.1,0.2v0.8C38.2,37.3,38.1,37.4,37.9,37.4z"/>
			</g>
		</g>
	</g>
	<g>
		<path class="st30" d="M33.1,61.2c-1.3-0.7-2.3-2.4-2.3-3.6c0-1.3,1-1.7,2.3-1c1.3,0.7,2.3,2.4,2.3,3.6
			C35.4,61.5,34.3,62,33.1,61.2z"/>
		<path class="st31" d="M35.2,60.2c0,1.2-0.9,1.6-2.1,0.9c-1.2-0.7-2.1-2.2-2.1-3.3s0.9-1.6,2.1-0.9C34.2,57.5,35.2,59,35.2,60.2z"
			/>
		<path class="st30" d="M33.3,57.3L32.8,57c-0.1,0.8-0.3,1.7-0.4,2c0.4,0,0.6,0,0.9,0L33,60.8c0.7-1.9,0.6-1.8,0.7-2.1
			c-0.4,0-0.1,0-0.9,0L33.3,57.3z"/>
	</g>
</g>
</svg>
