<?xml version="1.0" standalone="no"?><svg xmlns="http://www.w3.org/2000/svg" viewBox="0 0 1440 320"><path fill="#138190" fill-opacity="1" d="M0,64L9.6,80C19.2,96,38,128,58,117.3C76.8,107,96,53,115,48C134.4,43,154,85,173,133.3C192,181,211,235,230,218.7C249.6,203,269,117,288,122.7C307.2,128,326,224,346,261.3C364.8,299,384,277,403,245.3C422.4,213,442,171,461,149.3C480,128,499,128,518,144C537.6,160,557,192,576,202.7C595.2,213,614,203,634,176C652.8,149,672,107,691,101.3C710.4,96,730,128,749,149.3C768,171,787,181,806,165.3C825.6,149,845,107,864,122.7C883.2,139,902,213,922,245.3C940.8,277,960,267,979,224C998.4,181,1018,107,1037,74.7C1056,43,1075,53,1094,96C1113.6,139,1133,213,1152,218.7C1171.2,224,1190,160,1210,128C1228.8,96,1248,96,1267,96C1286.4,96,1306,96,1325,112C1344,128,1363,160,1382,192C1401.6,224,1421,256,1430,272L1440,288L1440,320L1430.4,320C1420.8,320,1402,320,1382,320C1363.2,320,1344,320,1325,320C1305.6,320,1286,320,1267,320C1248,320,1229,320,1210,320C1190.4,320,1171,320,1152,320C1132.8,320,1114,320,1094,320C1075.2,320,1056,320,1037,320C1017.6,320,998,320,979,320C960,320,941,320,922,320C902.4,320,883,320,864,320C844.8,320,826,320,806,320C787.2,320,768,320,749,320C729.6,320,710,320,691,320C672,320,653,320,634,320C614.4,320,595,320,576,320C556.8,320,538,320,518,320C499.2,320,480,320,461,320C441.6,320,422,320,403,320C384,320,365,320,346,320C326.4,320,307,320,288,320C268.8,320,250,320,230,320C211.2,320,192,320,173,320C153.6,320,134,320,115,320C96,320,77,320,58,320C38.4,320,19,320,10,320L0,320Z"></path></svg>