<?xml version="1.0" standalone="no"?><svg xmlns="http://www.w3.org/2000/svg" viewBox="0 0 1440 320"><path fill="#138190" fill-opacity="1" d="M0,96L12,85.3C24,75,48,53,72,90.7C96,128,120,224,144,266.7C168,309,192,299,216,266.7C240,235,264,181,288,176C312,171,336,213,360,245.3C384,277,408,299,432,261.3C456,224,480,128,504,112C528,96,552,160,576,202.7C600,245,624,267,648,250.7C672,235,696,181,720,176C744,171,768,213,792,202.7C816,192,840,128,864,133.3C888,139,912,213,936,208C960,203,984,117,1008,106.7C1032,96,1056,160,1080,170.7C1104,181,1128,139,1152,149.3C1176,160,1200,224,1224,218.7C1248,213,1272,139,1296,117.3C1320,96,1344,128,1368,149.3C1392,171,1416,181,1428,186.7L1440,192L1440,320L1428,320C1416,320,1392,320,1368,320C1344,320,1320,320,1296,320C1272,320,1248,320,1224,320C1200,320,1176,320,1152,320C1128,320,1104,320,1080,320C1056,320,1032,320,1008,320C984,320,960,320,936,320C912,320,888,320,864,320C840,320,816,320,792,320C768,320,744,320,720,320C696,320,672,320,648,320C624,320,600,320,576,320C552,320,528,320,504,320C480,320,456,320,432,320C408,320,384,320,360,320C336,320,312,320,288,320C264,320,240,320,216,320C192,320,168,320,144,320C120,320,96,320,72,320C48,320,24,320,12,320L0,320Z"></path></svg>